<?xml version="1.0" encoding="utf-8"?>
<!-- Generator: Adobe Illustrator 16.0.0, SVG Export Plug-In . SVG Version: 6.00 Build 0)  -->
<!DOCTYPE svg PUBLIC "-//W3C//DTD SVG 1.1//EN" "http://www.w3.org/Graphics/SVG/1.1/DTD/svg11.dtd">
<svg version="1.1" id="Layer_1" xmlns:sketch="http://www.bohemiancoding.com/sketch/ns"
	 xmlns="http://www.w3.org/2000/svg" xmlns:xlink="http://www.w3.org/1999/xlink" x="0px" y="0px" width="433.066px"
	 height="418.133px" viewBox="270.934 14.934 433.066 418.133" enable-background="new 270.934 14.934 433.066 418.133"
	 xml:space="preserve" stroke="#51B7A6" fill="#51B7A6" style="cursor: pointer">
<title>building_013-company-house-office-school-tower-city</title>
<desc>Created with Sketch.</desc>
<g sketch:type="MSPage">
	<g transform="translate(-135.000000, -90.000000)" sketch:type="MSArtboardGroup">
		<g transform="translate(136.000000, 91.000000)" sketch:type="MSLayerGroup">
			<path sketch:type="MSShapeGroup" d="M269.934,155.8c0-4.124,3.343-7.466,7.466-7.466h126.933v14.933H284.867V424.6h-14.933V155.8
				z"/>
			<path sketch:type="MSShapeGroup" d="M703,140.867c0-4.124-3.343-7.467-7.467-7.467H568.6v14.934h119.467V424.6H703V140.867z"/>
			<path sketch:type="MSShapeGroup" d="M583.533,21.4c0-4.124-3.343-7.466-7.467-7.466h-179.2c-4.123,0-7.466,3.343-7.466,7.466
				v410.667h14.933v-403.2H568.6v403.2h14.934V21.4z"/>
			<rect x="434.2" y="13.934" sketch:type="MSShapeGroup" width="14.934" height="418.133">
			</rect>
			<rect x="479" y="13.934" sketch:type="MSShapeGroup" width="14.934" height="418.133">
			</rect>
			<rect x="523.8" y="13.934" sketch:type="MSShapeGroup" width="14.934" height="418.133">
			</rect>
			<path sketch:type="MSShapeGroup" d="M620.867,208.067c4.123,0,7.466-3.343,7.466-7.467v-14.934c0-4.124-3.343-7.466-7.466-7.466
				c-4.124,0-7.467,3.343-7.467,7.466V200.6C613.4,204.724,616.743,208.067,620.867,208.067z"/>
			<path sketch:type="MSShapeGroup" d="M650.733,208.067c4.124,0,7.467-3.343,7.467-7.467v-14.934c0-4.124-3.343-7.466-7.467-7.466
				s-7.467,3.343-7.467,7.466V200.6C643.267,204.724,646.609,208.067,650.733,208.067z"/>
			<path sketch:type="MSShapeGroup" d="M620.867,267.8c4.123,0,7.466-3.343,7.466-7.466V245.4c0-4.124-3.343-7.466-7.466-7.466
				c-4.124,0-7.467,3.343-7.467,7.466v14.934C613.4,264.457,616.743,267.8,620.867,267.8z"/>
			<path sketch:type="MSShapeGroup" d="M650.733,267.8c4.124,0,7.467-3.343,7.467-7.466V245.4c0-4.124-3.343-7.466-7.467-7.466
				s-7.467,3.343-7.467,7.466v14.934C643.267,264.457,646.609,267.8,650.733,267.8z"/>
			<path sketch:type="MSShapeGroup" d="M620.867,327.533c4.123,0,7.466-3.343,7.466-7.467v-14.933c0-4.124-3.343-7.468-7.466-7.468
				c-4.124,0-7.467,3.344-7.467,7.468v14.933C613.4,324.19,616.743,327.533,620.867,327.533z"/>
			<path sketch:type="MSShapeGroup" d="M650.733,327.533c4.124,0,7.467-3.343,7.467-7.467v-14.933c0-4.124-3.343-7.468-7.467-7.468
				s-7.467,3.344-7.467,7.468v14.933C643.267,324.19,646.609,327.533,650.733,327.533z"/>
			<path sketch:type="MSShapeGroup" d="M620.867,387.267c4.123,0,7.466-3.343,7.466-7.467v-14.933c0-4.124-3.343-7.467-7.466-7.467
				c-4.124,0-7.467,3.343-7.467,7.467V379.8C613.4,383.924,616.743,387.267,620.867,387.267z"/>
			<path sketch:type="MSShapeGroup" d="M650.733,387.267c4.124,0,7.467-3.343,7.467-7.467v-14.933c0-4.124-3.343-7.467-7.467-7.467
				s-7.467,3.343-7.467,7.467V379.8C643.267,383.924,646.609,387.267,650.733,387.267z"/>
			<rect x="269.934" y="193.133" sketch:type="MSShapeGroup" width="134.399" height="14.934">
			</rect>
			<rect x="269.934" y="237.934" sketch:type="MSShapeGroup" width="134.399" height="14.933">
			</rect>
			<rect x="269.934" y="282.733" sketch:type="MSShapeGroup" width="134.399" height="14.933">
			</rect>
			<rect x="269.934" y="327.533" sketch:type="MSShapeGroup" width="134.399" height="14.934">
			</rect>
			<rect x="269.934" y="372.333" sketch:type="MSShapeGroup" width="134.399" height="14.934">
			</rect>
			<path sketch:type="MSShapeGroup" d="M695.533,432.066c4.124,0,7.467-3.343,7.467-7.467c0-4.123-3.343-7.466-7.467-7.466H277.4
				c-4.124,0-7.466,3.343-7.466,7.466c0,4.124,3.343,7.467,7.466,7.467H695.533z"/>
		</g>
	</g>
</g>
</svg>
