<?xml version="1.0" encoding="utf-8"?>
<!-- Generator: Adobe Illustrator 16.0.0, SVG Export Plug-In . SVG Version: 6.00 Build 0)  -->
<!DOCTYPE svg PUBLIC "-//W3C//DTD SVG 1.1//EN" "http://www.w3.org/Graphics/SVG/1.1/DTD/svg11.dtd">
<svg version="1.1" id="Layer_1" xmlns="http://www.w3.org/2000/svg" xmlns:xlink="http://www.w3.org/1999/xlink" x="0px" y="0px"
	 width="448.002px" height="448.004px" viewBox="255.713 0 448.002 448.004" enable-background="new 255.713 0 448.002 448.004"
	 xml:space="preserve">
<path fill="#88C9B3" d="M691.264,223.238c-13.297-13.646-16.263-34.429-7.316-51.305c6.389-12.033,6.828-26.392,1.21-38.806
	c-5.622-12.419-16.675-21.478-29.877-24.497c-18.517-4.229-32.148-20.097-33.667-39.173c-1.08-13.606-8.409-25.93-19.798-33.309
	c-11.393-7.378-25.54-8.978-38.264-4.318c-17.849,6.532-37.82,0.614-49.324-14.605C506.016,6.375,493.247,0,479.713,0
	c-13.538,0-26.302,6.375-34.514,17.23c-11.505,15.214-31.485,21.132-49.32,14.601c-12.728-4.659-26.884-3.06-38.268,4.318
	c-11.393,7.379-18.717,19.699-19.802,33.309c-1.519,19.076-15.156,34.939-33.663,39.173c-13.207,3.02-24.259,12.078-29.881,24.501
	c-5.627,12.414-5.179,26.768,1.209,38.806c8.951,16.876,5.981,37.654-7.32,51.305c-9.489,9.74-13.928,23.381-11.998,36.897
	c1.926,13.512,9.995,25.338,21.822,31.992c16.576,9.318,25.227,28.412,21.356,47.144c-2.76,13.359,0.824,27.256,9.69,37.582
	c8.866,10.317,22.001,15.873,35.518,15.018c18.946-1.201,36.458,10.151,43.241,28.026c4.847,12.75,15.313,22.48,28.304,26.329
	c12.988,3.849,27.02,1.357,37.928-6.729c15.295-11.329,36.118-11.329,51.404,0c10.917,8.087,24.936,10.578,37.932,6.729
	c12.987-3.849,23.457-13.579,28.301-26.329c6.787-17.875,24.304-29.223,43.245-28.026c13.512,0.855,26.643-4.7,35.509-15.018
	c8.87-10.326,12.449-24.219,9.694-37.582c-3.871-18.736,4.771-37.825,21.352-47.144c11.832-6.648,19.904-18.48,21.822-31.992
	C705.196,246.62,700.761,232.978,691.264,223.238z M442.561,334.038l-95.245-96.065l40.553-40.894l54.692,55.158l126.265-127.308
	l40.579,40.88L442.561,334.038z"/>
</svg>
