<?xml version="1.0" encoding="utf-8"?>
<!-- Generator: Adobe Illustrator 16.0.0, SVG Export Plug-In . SVG Version: 6.00 Build 0)  -->
<!DOCTYPE svg PUBLIC "-//W3C//DTD SVG 1.1//EN" "http://www.w3.org/Graphics/SVG/1.1/DTD/svg11.dtd">
<svg version="1.1" id="Capa_1" xmlns="http://www.w3.org/2000/svg" xmlns:xlink="http://www.w3.org/1999/xlink" x="0px" y="0px"
	 width="560px" height="471.455px" viewBox="200 44.272 560 471.455" enable-background="new 200 44.272 560 471.455"
	 xml:space="preserve">
<path fill="#E77200" d="M760,449.273v33.943c0,17.953-14.558,32.511-32.511,32.511H232.511c-17.954,0-32.511-14.558-32.511-32.511
	v-33.943h34.289h162.828c0,16.545,13.409,29.955,29.942,29.955H532.94c16.546,0,29.955-13.41,29.955-29.955h162.815H760z"/>
<path fill="#7C6655" d="M725.711,147.202v302.072H562.896H397.117H234.289V255.391c10.335,11.051,22.646,20.226,36.389,26.955
	v130.539h159.21h47.402h131.464h80.557V273.443V158.759h-65.195h-47.402H450.755c-1.087-12.779-4.112-25.016-8.767-36.4h258.879
	C714.586,122.358,725.711,133.483,725.711,147.202z"/>
<polygon fill="#FCF4DE" points="689.311,273.443 689.311,412.885 608.755,412.885 "/>
<polygon fill="#88C9B3" points="689.311,158.759 689.311,273.443 608.755,412.885 477.29,412.885 624.115,158.759 "/>
<polygon fill="#FCF4DE" points="624.115,158.759 477.29,412.885 429.888,412.885 576.713,158.759 "/>
<path fill="#88C9B3" d="M576.713,158.759L429.888,412.885h-159.21V282.346c16.632,8.174,35.351,12.756,55.144,12.756
	c19.312,0,37.599-4.371,53.935-12.162l50.946,46.389l-9.854-77.802c18.941-21.966,30.388-50.563,30.388-81.84
	c0-3.679-0.16-7.322-0.481-10.927H576.713z"/>
<path fill="#C65C05" d="M397.117,449.273h165.778c0,16.545-13.409,29.955-29.955,29.955H427.06
	C410.526,479.229,397.117,465.818,397.117,449.273z"/>
<path fill="#FCF4DE" d="M270.683,158.762v254.125h418.633V158.762H270.683z M674.498,398.07H285.5V173.579h388.999V398.07z"/>
<path fill="#FCF4DE" d="M270.678,282.346c-13.743-6.729-26.054-15.903-36.389-26.955c-21.016-22.423-33.869-52.551-33.869-85.705
	c0-69.257,56.145-125.414,125.402-125.414c52.527,0,97.497,32.289,116.167,78.086c4.654,11.384,7.68,23.621,8.767,36.4
	c0.321,3.606,0.481,7.248,0.481,10.928c0,31.276-11.446,59.874-30.388,81.84l9.854,77.802l-50.946-46.39
	c-16.336,7.792-34.623,12.163-53.935,12.163C306.029,295.102,287.31,290.52,270.678,282.346z M397.846,224.127v-18.521H253.811
	v18.521H397.846z M397.846,185.64v-18.521H253.811v18.521H397.846z M397.846,147.152v-18.521H253.811v18.521H397.846z"/>
<rect x="253.811" y="205.606" fill="#7C6655" width="144.035" height="18.521"/>
<rect x="253.811" y="167.118" fill="#7C6655" width="144.035" height="18.521"/>
<rect x="253.811" y="128.631" fill="#7C6655" width="144.035" height="18.521"/>
</svg>
