<?xml version="1.0" encoding="utf-8"?>
<!-- Generator: Adobe Illustrator 16.0.0, SVG Export Plug-In . SVG Version: 6.00 Build 0)  -->
<!DOCTYPE svg PUBLIC "-//W3C//DTD SVG 1.1//EN" "http://www.w3.org/Graphics/SVG/1.1/DTD/svg11.dtd">
<svg version="1.1" id="Capa_1" xmlns="http://www.w3.org/2000/svg" xmlns:xlink="http://www.w3.org/1999/xlink" x="0px" y="0px"
	 width="484.615px" height="560px" viewBox="237.692 0 484.615 560" enable-background="new 237.692 0 484.615 560"
	 xml:space="preserve">
<g>
	<path fill="#F5DEB3" d="M679.23,217.883h-64.615v43.077h43.077c11.846,0,21.538,9.692,21.538,21.538V390.19
		c0,11.847-9.692,21.539-21.538,21.539h-43.077v43.077h64.615c23.692,0,43.077-19.385,43.077-43.077V260.96
		C722.308,237.268,702.923,217.883,679.23,217.883z"/>
	<path fill="#F5DEB3" d="M550,43.077c-14.894,0-28.57,5.083-39.49,13.547c-10.727-20.817-32.395-35.086-57.433-35.086
		c-9.144,0-17.823,1.917-25.706,5.341C414.566,10.543,394.686,0,372.308,0c-33.654,0-61.729,23.746-68.449,55.397
		c-3.974-0.937-8.066-1.551-12.32-1.551c-29.734,0-53.846,24.112-53.846,53.846v86.154c0,11.846,9.692,21.539,21.539,21.539H270
		c11.846,0,21.539-9.692,21.539-21.539v-17.188c6.526,3.996,14.097,6.419,22.271,6.419h21.183c13.731,0,25.868-6.623,33.772-16.703
		c11.728,16.574,31.005,27.472,52.737,27.472c35.538,0,64.615-29.077,64.615-64.615h124.74c2.391-6.742,3.758-13.979,3.758-21.539
		C614.615,72.003,585.689,43.077,550,43.077z"/>
	<path fill="#F4C44E" d="M486.117,129.231c0,35.538-29.077,64.615-64.615,64.615c-21.732,0-41.01-10.898-52.737-27.472
		c-7.905,10.08-20.042,16.703-33.772,16.703h-21.183c-8.163,0-15.745-2.423-22.271-6.419v329.496
		c0,29.615,24.23,53.846,53.846,53.846H560.77c29.615,0,53.846-24.23,53.846-53.846V129.231H486.117z"/>
	<path fill="#F9DA49" d="M356.154,269.231c0-17.77-14.539-32.308-32.308-32.308s-32.308,14.539-32.308,32.308v226.154h64.615
		V269.231z"/>
	<path fill="#EEAF4B" d="M420.77,269.231c0-17.77-14.539-32.308-32.308-32.308s-32.308,14.539-32.308,32.308v226.154h64.616V269.231
		z"/>
	<path fill="#F9DA49" d="M485.385,269.231c0-17.77-14.539-32.308-32.308-32.308c-17.77,0-32.308,14.539-32.308,32.308v226.154
		h64.615V269.231z"/>
	<path fill="#EEAF4B" d="M550,269.231c0-17.77-14.538-32.308-32.308-32.308s-32.308,14.539-32.308,32.308v226.154H550V269.231z"/>
	<path fill="#F9DA49" d="M614.615,269.231c0-17.77-14.538-32.308-32.308-32.308S550,251.461,550,269.231v226.154h64.615V269.231z"/>
</g>
</svg>
