<?xml version="1.0" encoding="utf-8"?>
<!-- Generator: Adobe Illustrator 16.0.0, SVG Export Plug-In . SVG Version: 6.00 Build 0)  -->
<!DOCTYPE svg PUBLIC "-//W3C//DTD SVG 1.1//EN" "http://www.w3.org/Graphics/SVG/1.1/DTD/svg11.dtd">
<svg version="1.1" id="Layer_1" xmlns="http://www.w3.org/2000/svg" xmlns:xlink="http://www.w3.org/1999/xlink" x="0px" y="0px" fill="#51B7A6" stroke="#51B7A6"
	 width="400px" height="403.203px" viewBox="323.182 22.396 313.631 403.203"
	 enable-background="new 323.182 22.396 313.631 403.203" xml:space="preserve" style="cursor: pointer">
<g>
	<path fill="none" d="M339.583,239.711c-8.23,0-14.901,6.594-14.901,14.726l30.088,137.326c0,8.131,6.667,14.73,14.896,14.73
		h220.663c8.234,0,14.896-6.6,14.896-14.73l30.093-137.326c0-8.126-6.676-14.726-14.896-14.726h-12.149h-5.698h-2.854H360.276
		H339.583z M480,316.427c4.413,0,7.992,3.584,7.992,7.997s-3.579,7.992-7.992,7.992s-7.992-3.579-7.992-7.992
		S475.587,316.427,480,316.427z"/>
	<path fill="none" d="M532.676,106.355c-0.184-0.085-0.367-0.143-0.564-0.184l-5.618,5.412l-69.18-35.612
		c-22.624-2.097-26.217,28.125-26.49,30.818c-0.014,0.121-0.019,0.188-0.019,0.193l0,0h-0.004c-0.802-0.649-1.622-0.95-2.406-0.815
		c-0.345,0.063-0.663,0.206-0.963,0.421c-2.182,1.568-3.064,7.047-1.958,13.251c0.843,4.718,2.621,8.651,4.565,10.591
		c0.963,0.963,1.962,1.438,2.912,1.272c0.461-0.081,0.878-0.305,1.254-0.659c4.597,14.3,13.369,28.551,24.447,37.153
		c6.527,5.071,13.857,8.18,21.599,8.18c7.692,0,14.977-3.073,21.473-8.091c11.128-8.588,19.958-22.893,24.568-37.242
		c0.376,0.354,0.797,0.578,1.254,0.659c0.824,0.143,1.676-0.188,2.514-0.896c2.097-1.774,4.063-5.923,4.959-10.962
		C536.201,113.277,535.148,107.516,532.676,106.355z"/>
	<path fill="none" d="M513.121,172.185c-0.036-0.014-0.076-0.032-0.112-0.054c-5.645,5.564-11.912,9.968-18.601,12.621
		c-4.548,1.801-9.278,2.8-14.148,2.8c-4.874,0-9.614-0.995-14.152-2.8c-6.756-2.679-13.077-7.142-18.762-12.773h-0.005
		c0,6.935-5.3,10.891-8.893,12.773c-0.431,0.224-0.833,0.421-1.201,0.586c-0.9,0.408-1.581,0.65-1.882,0.749l0,0
		c0.216,1.783,1.004,3.499,2.271,5.121c5.95,7.607,22.669,18.592,42.372,18.592s36.418-10.985,42.372-18.592
		c1.268-1.622,2.057-3.338,2.271-5.121c0.009-0.054,0.009-0.103,0.014-0.157C522.232,185.042,513.264,181.122,513.121,172.185z"/>
	<circle cx="480" cy="324.424" r="7.997"/>
	<path d="M605.346,412.729H354.659c-3.53,0-6.389,2.886-6.389,6.438s2.858,6.433,6.389,6.433h250.683
		c3.525,0,6.384-2.885,6.384-6.438C611.717,415.614,608.862,412.729,605.346,412.729z"/>
	<path d="M555.273,189.692c-0.632-0.148-1.272-0.282-1.918-0.408c-16.526-15.268-5.246-79.019-5.246-79.019
		c0-97.171-65.73-87.611-65.73-87.611c-0.798-0.04-1.591-0.072-2.379-0.099c-0.788,0.027-1.581,0.059-2.384,0.099
		c0,0-65.726-9.56-65.726,87.611c0,0,11.28,63.746-5.246,79.019c-0.649,0.125-1.286,0.26-1.918,0.408
		c-5.349,1.25-29.854,2.867-43.702,47.586h237.946C585.128,192.56,560.617,190.942,555.273,189.692z M524.644,186.09
		c-0.216,1.783-1.004,3.499-2.271,5.121c-5.954,7.607-22.669,18.592-42.372,18.592s-36.423-10.985-42.372-18.592
		c-1.268-1.622-2.056-3.338-2.271-5.121l0,0c0.301-0.099,0.981-0.345,1.882-0.748c0.367-0.17,0.771-0.363,1.201-0.587
		c3.597-1.882,8.893-5.837,8.893-12.772h0.004c5.69,5.631,12.012,10.093,18.763,12.772c4.543,1.805,9.278,2.8,14.152,2.8
		c4.87,0,9.605-0.999,14.147-2.8c6.689-2.652,12.961-7.056,18.602-12.621c0.04,0.018,0.08,0.036,0.111,0.054
		c0.144,8.942,9.112,12.857,11.536,13.753C524.652,185.987,524.652,186.037,524.644,186.09z M535.023,119.849
		c-0.896,5.04-2.867,9.188-4.959,10.962c-0.838,0.708-1.689,1.04-2.514,0.896c-0.462-0.081-0.878-0.305-1.255-0.659
		c-4.609,14.354-13.439,28.654-24.567,37.242c-6.496,5.018-13.781,8.091-21.473,8.091c-7.746,0-15.071-3.109-21.599-8.18
		c-11.079-8.602-19.851-22.853-24.447-37.153c-0.376,0.354-0.798,0.578-1.255,0.659c-0.954,0.166-1.953-0.309-2.911-1.272
		c-1.944-1.94-3.719-5.873-4.565-10.59c-1.106-6.205-0.229-11.684,1.958-13.252c0.295-0.215,0.618-0.358,0.963-0.421
		c0.784-0.134,1.604,0.166,2.405,0.815h0.005l0,0c0-0.004,0.005-0.072,0.018-0.192c0.278-2.697,3.866-32.915,26.49-30.818
		l69.181,35.611l5.618-5.412c0.196,0.036,0.381,0.099,0.564,0.184C535.148,107.516,536.201,113.277,535.023,119.849z"/>
	<path d="M368.309,408.926h223.377c8.306,0,15.044-6.733,15.044-15.044l30.083-141.564c0-8.306-6.733-15.039-15.044-15.039h-13.148
		h-6.397h-3.253c0.246,0.802,0.502,1.586,0.739,2.415c0.005,0.009,0.009,0.014,0.009,0.018h2.854h5.693h12.15
		c8.221,0,14.896,6.599,14.896,14.726l-30.092,137.326c0,8.131-6.662,14.73-14.896,14.73H369.667c-8.229,0-14.896-6.6-14.896-14.73
		l-30.088-137.326c0-8.131,6.671-14.726,14.901-14.726h20.693c0.004-0.004,0.004-0.009,0.004-0.018
		c0.247-0.833,0.498-1.613,0.744-2.415h-22.803c-8.306,0-15.04,6.733-15.04,15.04l30.083,141.567
		C353.265,402.192,359.999,408.926,368.309,408.926z" stroke-width="5px"/>
	<path d="M360.276,239.711h239.442c0-0.004-0.004-0.009-0.009-0.018c-0.237-0.833-0.493-1.613-0.739-2.415H361.024
		c-0.246,0.802-0.497,1.586-0.744,2.415C360.281,239.702,360.281,239.707,360.276,239.711z"/>
</g>
</svg>
