<?xml version="1.0" encoding="utf-8"?>
<!-- Generator: Adobe Illustrator 16.0.0, SVG Export Plug-In . SVG Version: 6.00 Build 0)  -->
<!DOCTYPE svg PUBLIC "-//W3C//DTD SVG 1.1//EN" "http://www.w3.org/Graphics/SVG/1.1/DTD/svg11.dtd">
<svg version="1.1" id="Layer_2" xmlns="http://www.w3.org/2000/svg" xmlns:xlink="http://www.w3.org/1999/xlink" x="0px" y="0px"
	 width="604px" height="570.119px" viewBox="0 0 604 570.119" enable-background="new 0 0 604 570.119" xml:space="preserve">
<path display="none" fill="#00A99D" d="M248.181,570.119c0,0,40.434-57.771,30.671-75.697
	c-18.289-33.578-73.014-1.347-73.006-134.41c0.002-25.438,0-36.444,0-36.444s61.842,33.829,114.339,33.829
	s112.665-24.002,112.665-24.002s-2.526,34.761,0.666,46.333c3.809,13.811,19.664,36.333,19.664,36.333
	c4,6.334-23.008,16.999-23.008,16.999s-13.014,55.776-20.326,64.001c-5.333,6-37.979-5.736-47.333,0.695
	c-10.667,7.334,22.335,72.363,22.335,72.363H248.181z"/>
<path display="none" fill="#EA96C6" d="M190.855,223.202c-0.874-23.127,12.936-58.215,50.452-77.619
	c37.516-19.405,82.048-15.659,109.791-16.817c62.265-2.599,106.248,18.758,106.248,43.983c0,31.048-12.826,44.607-21.992,50.453
	c-18.354,11.705-69.365,4.062-90.555,9.055c-13.5,3.181-34.213,23.578-46.571,29.754c-14.032,7.013-36.352,23.987-60.802,15.523
	c-23.537-8.147-36.608-22.746-42.566-36.902C192.305,234.56,191.058,228.568,190.855,223.202z"/>
<path display="none" fill="none" stroke="#AA6826" stroke-width="8" stroke-linecap="round" stroke-linejoin="round" stroke-miterlimit="10" d="
	M245.846,218.56"/>
<path display="none" fill="none" stroke="#DD6BC7" stroke-width="8" stroke-linecap="round" stroke-linejoin="round" stroke-miterlimit="10" d="
	M208.609,194.31c0,0,9.869,6.625,10.369,8.125s-1.316,8.062,0.684,10.062s9.225,2.253,12.342,2.781
	c3.488,0.591,11.736,0.681,13.672,3.641c2.095,3.205,3.077,7.845,0.17,10.338c-3.51,3.012-14.727,0.572-19-1.197
	c-3.593-1.488-9.555-3.195-13-5c-1.855-0.973-6.854-3.065-8.246-1.5c-2.692,3.028,2.26,12.3,4.746,15.5
	c2.065,2.658,8.26,6.091,11.5,7c2.648,0.742,8.25,0,11,0c3.25,0,10.439-2,13,0c2.031,1.586,4.086,7.969,2.5,10
	c-3.307,4.236-19.562-5.014-21.5,0c-1.34,3.467,7.534,8.66,11,10c3.266,1.262,10.5,0,14,0c3.25,0,11.14,2.664,13,0
	c2.287-3.274-4.472-11.141-5.5-15c-1.338-5.024-6.285-16.11-3.5-20.5c1.252-1.972,6.988-3.685,9-2.5c2.77,1.631,2.026,9.438,3,12.5
	c1.021,3.207,2.322,10.462,5,12.5c2.703,2.057,10.139,5.359,13.25,4c3.277-1.431,12.818-19.38,16-17.75
	c5.229,2.678,20.407-0.559,21.985-7.75c1.612-7.346-11.41-38.201-16.985-43.25c-6.016-5.449-20-3.75-30.25,0
	c-4.055,1.483-11.309,9.83-9.5,13.75c3,6.5,11.75,4.139,14.071,2.374c2.468-1.877,6.413-9.612,15.429-5.374
	c8.5,3.996,14.473,22.564,14,25c-1.5,7.75-10.197,0.879-14.75,4c-2.459,1.687-12.044,15.894-15,15.5c-3.158-0.42-4.75-11.5-2.75-16
	c1.674-3.766,21-6.75,16.75-12.75c-2.514-3.549-29.25,5.75-34.75,0.75c-3.227-2.934-28.075-17.085-30-21
	c-2.266-4.612-4.998-16.736-1.5-20.5c2.043-2.197,9.432-1.551,12,0c2.298,1.387,4.357,6.895,5,9.5c0.45,1.82-1.002,5.916,0,7.5
	c1.406,2.221,7.066,5.489,9.5,4.5c5.313-2.16,6.982-16.46,5.5-22c-1.467-5.488-15.83-8.379-15-14c0.754-5.099,14.306-10.126,19-8
	c2.521,1.142,2.301,8.007,3.5,10.5c1.195,2.483,3.717,7.706,6,9.25c2.955,1.998,10.45,2.404,14,2.75c2.861,0.278,8.625,0,11.5,0
	c3.5,0,10.908-1.64,14,0c2.27,1.202,4.57,6.227,5.764,8.5c1.434,2.731,4.472,11.5,4.472,11.5s4.437,9.014,5.634,12.139
	c1.109,2.896,1.139,10.018,3.631,11.861c2.111,1.561,17.875,6.271,20.5,6.25c7.627-0.062,12.876-6.595,20.5-6.75
	c5.126-0.104,20.455,6.904,25.5,6c4.553-0.815,8.176-10.859,12.5-12.5c4.559-1.729,14.551,10.928,17.75,7.25
	c3.562-4.094,18.109-32.085,17.75-37.5c-0.393-5.93-15.713-17.535-21-20.25c-2.4-1.232-8.789,0.413-10.5,2.5
	c-2.219,2.709,4.285,11.748,7.75,12.25c17.25,2.5,8.325,17.979,7.5,20.5c-4.498,13.75-26.715-0.797-28-1.75
	c-3.734-2.771,20.871-2.901,19.5-6.5c-1.424-3.738-23.054-6.832-22.25-10.75c0.766-3.73,4.218-19.15,7-21.75
	c1.936-1.808,9.871-0.854,10-3.5c0.275-5.642-14.908-8.694-20.5-9.5c-4.627-0.667-16.092-1.259-18.5,2.75
	c-1.536,2.559,1.562,9.528,4,11.25c1.227,0.865,11.9-3.763,13.215-3.041c1.43,0.784-3.354,13.405-3.9,14.941
	c-5.814,16.35-1.393,23.763-0.564,25.6c1.166,2.583,6.02,14.011,4,16c-7.75,7.639-17.518-11.16-22.25-10.75
	c-7.721,0.669-13.75,17.75-26.5,13c-3.307-1.231-10.632-17.329-11.5-20.75c-0.957-3.773-1.588-11.607-1.5-15.5
	c0.102-4.418-4.279-17.46-0.5-19.75c1.928-1.168,10.975,3.059,11.5,5.25c1.5,6.25-1.5,10.977-1.25,15
	c0.141,2.246,2.093,8.07,3.25,10c1.094,1.822,5.439,3.484,7.5,4c3.275,0.818,10.252,0.914,13.5,0c2.539-0.714,7.582-3.277,9-5.5
	c2.369-3.712,4.594-13.941,2-17.5c-1.501-2.061-7.57-2.771-10-2c-3.117,0.99-2.525,11.36-5,13.5c-9.25,8-7.628-13.477-7-17
	c0.497-2.784,2.425-6.831,5-8c1.712-0.776,6.52,1.103,7.5-0.5c1.99-3.247-2.485-12.533-6-14c-4.092-1.707-11.098,8.475-15.5,9
	c-3.617,0.432-3.643-5.583-7-7c-11.25-4.75-18.215,3.169-19.25,4.25c-2.939,3.069,1.885,12.415-0.75,15.75
	c-1.672,2.117-7.801,2.525-10.5,2.5c-4.002-0.038-19.494,1.131-23.25-0.25c-4.564-1.679-9.762-7.387-9.75-12.25
	c0.01-3.326,8.738-5.097,12-5.75c3.56-0.713,13.242-2.382,17.25-0.75c2.988,1.217,5.062,6.963,2.201,8.453
	c-3.262,1.698-10.951,1.297-10.951,1.297"/>
<g display="none">
</g>
<g display="none">
	<polygon display="inline" fill="#A5A5A5" points="196,201.443 133,195.95 133,144.06 196,150.165 	"/>
	<polygon display="inline" fill="#A5A5A5" points="462,201.443 523,195.95 523,144.06 462,150.165 	"/>
	<rect x="171" y="162.119" display="inline" fill="#C1C1C1" width="315" height="59"/>
	<polygon display="inline" fill="#939292" points="170.55,162.119 196,150.165 196,162.119 	"/>
	<polygon display="inline" fill="#939292" points="486.645,162.119 462,150.165 462,162.119 	"/>
	<rect x="183.965" y="171.655" display="inline" fill="none" width="291.5" height="45.809"/>
	
		<text transform="matrix(1 0 0 1 206.7686 212.9277)" display="inline" fill="#00A99D" font-family="'OstrichSans-Black'" font-size="56">Self Taught</text>
</g>
<path display="none" fill="#7A7A7A" d="M205.838,316.56c-4.33-11.955,51.258-19,110.508-19s125.168,18.501,116.502,29.833
	c-2.162,2.826-57.334,24.417-113.506,24.417C272.137,351.81,207.181,320.269,205.838,316.56z"/>
<path display="none" fill="none" stroke="#E77200" stroke-width="8" stroke-linecap="round" stroke-linejoin="round" stroke-miterlimit="10" d="
	M377.846,311.635c0,0-15.709-10.224-6.666-19.954c6.153-6.621,15.702,2.22,21.333-8.621c4.154-7.998-6.667-18-6.667-18"/>
<polygon fill="#E77200" points="203.514,43.061 198.846,77.728 234.847,71.061 "/>
<g display="none">
	
		<line display="inline" fill="none" stroke="#808080" stroke-width="8" stroke-linecap="round" stroke-miterlimit="10" x1="305.847" y1="63.061" x2="326.337" y2="97.061"/>
	
		<line display="inline" fill="none" stroke="#808080" stroke-width="8" stroke-linecap="round" stroke-miterlimit="10" x1="298.103" y1="90.324" x2="332.081" y2="69.798"/>
</g>
<rect x="422.846" y="248.06" transform="matrix(0.9085 -0.4178 0.4178 0.9085 -70.4236 208.4457)" fill="#A0A0A0" width="36" height="34"/>
<line fill="none" stroke="#DD9D68" stroke-width="8" stroke-linecap="round" stroke-miterlimit="10" x1="281.998" y1="316.786" x2="321.064" y2="278.22"/>
<ellipse display="none" fill="#DD9D68" cx="259.18" cy="110.228" rx="13" ry="13.167"/>
<g display="none">
	
		<line display="inline" fill="none" stroke="#808080" stroke-width="8" stroke-linecap="round" stroke-miterlimit="10" x1="153.978" y1="69.345" x2="135.728" y2="104.598"/>
	
		<line display="inline" fill="none" stroke="#808080" stroke-width="8" stroke-linecap="round" stroke-miterlimit="10" x1="126.692" y1="77.013" x2="161.965" y2="95.227"/>
</g>
<polygon display="none" fill="#C1C1C1" points="400.087,3.741 368.448,18.661 400.025,35.546 "/>
<path display="none" fill="none" stroke="#C1C1C1" stroke-width="7" stroke-miterlimit="10" d="M231.785,16.662
	c0,0,3.957-12.325,13.801-9.399c8.887,2.643,1.912,11.451,11.342,13.757c9.429,2.306,8.516-8.996,18.889-6.21
	c7.318,1.967,2.326,11.397,11.363,13.48c8.945,2.062,7.039-9.417,17.506-7.285c9.811,1.996,7.573,11.99,7.573,11.99"/>
<polygon display="none" fill="#A0A0A0" points="503.822,17.312 506.988,55.853 474.53,37.866 475.003,0 "/>
<path fill="none" stroke="#DD9D68" stroke-width="8" stroke-linecap="round" stroke-miterlimit="10" d="M461.587,60.726
	c-7.911,4.836-9.79-6.241-17.812-0.775c-8.022,5.465,0.988,12.348-8.022,18.192c-6.359,4.124-10.027-5.896-17.621-0.574
	c-7.518,5.27,2.288,11.532-6.299,17.886c-8.048,5.956-13.979-2.395-13.979-2.395"/>
<line fill="none" stroke="#E77200" stroke-width="8" stroke-linecap="round" stroke-linejoin="round" stroke-miterlimit="10" x1="503.533" y1="99.425" x2="542.07" y2="109.938"/>
<rect x="45.846" y="88.06" transform="matrix(0.9085 -0.4178 0.4178 0.9085 -38.0568 36.2873)" fill="#A0A0A0" width="36" height="34"/>
<line display="none" fill="none" stroke="#DD9D68" stroke-width="8" stroke-linecap="round" stroke-miterlimit="10" x1="180.833" y1="16.618" x2="142.772" y2="28.745"/>
<path fill="none" stroke="#C1C1C1" stroke-width="7" stroke-miterlimit="10" d="M273.998,323.58"/>
<path display="none" fill="none" stroke="#C1C1C1" stroke-width="7" stroke-miterlimit="10" d="M200.482,286.997
	c0,0,7.009-10.883,15.762-5.512c7.901,4.85-1.113,11.556,7.399,16.221s10.552-6.488,19.853-1.115
	c6.561,3.792,7.491,15.96,7.491,15.96"/>
<path fill="none" stroke="#E77200" stroke-width="8" stroke-linecap="round" stroke-linejoin="round" stroke-miterlimit="10" d="
	M19.707,26.215c0,0,7.774-10.351,16.117-4.363c7.532,5.407-1.942,11.446,6.213,16.712c8.154,5.266,10.991-5.712,19.88,0.317
	c6.271,4.254-1.534,11.531,6.324,16.458c7.777,4.876,19.062-4.22,19.062-4.22"/>
<ellipse fill="#DD9D68" cx="572.18" cy="48.228" rx="13" ry="13.167"/>
<ellipse fill="#C1C1C1" cx="351.18" cy="255.228" rx="13" ry="13.167"/>
</svg>
