<?xml version="1.0" encoding="utf-8"?>
<!-- Generator: Adobe Illustrator 16.0.4, SVG Export Plug-In . SVG Version: 6.00 Build 0)  -->
<!DOCTYPE svg PUBLIC "-//W3C//DTD SVG 1.1//EN" "http://www.w3.org/Graphics/SVG/1.1/DTD/svg11.dtd">
<svg version="1.1" id="Layer_1" xmlns="http://www.w3.org/2000/svg" xmlns:xlink="http://www.w3.org/1999/xlink" x="0px" y="0px"
	 width="240.94531px" height="136.06299px" viewBox="0 0 240.94531 136.06299" enable-background="new 0 0 240.94531 136.06299"
	 xml:space="preserve">
<rect x="-14.80078" y="-14.69189" width="270" height="164.76172"/>
<g>
	<path fill="#FFFFFF" d="M96.5127,125.39014c-41.23242,0-74.93262-33.54688-75.12305-74.78125
		c-0.00195-0.26562,0.10352-0.52148,0.29102-0.70898c0.1875-0.18945,0.44336-0.29492,0.70898-0.29492h148.25391
		c0.26562,0,0.52148,0.10547,0.70898,0.29492c0.1875,0.1875,0.29199,0.44336,0.29102,0.71094
		C171.45215,91.84326,137.74902,125.39014,96.5127,125.39014z M23.40137,51.60498
		c0.72266,39.67578,33.31152,71.78516,73.11133,71.78516c39.80273,0,72.39551-32.10938,73.11914-71.78516H23.40137z"/>
</g>
<g>
	<path fill="#FFFFFF" d="M112.89551,116.62061c-17.80176,0-34.62305-6.8418-47.36621-19.26562
		c-12.7168-12.39844-19.99023-28.99023-20.48242-46.7207c-0.00781-0.27734,0.09766-0.54492,0.29102-0.74414
		c0.19238-0.19922,0.45801-0.31055,0.73438-0.31055h133.64355c0.27734,0,0.54199,0.11133,0.73535,0.31055
		s0.29785,0.4668,0.29004,0.74414c-0.49121,17.73047-7.7666,34.32227-20.4834,46.7207
		C147.5127,109.77881,130.69336,116.62061,112.89551,116.62061z M47.13574,51.63037
		c0.72949,16.79883,7.74512,32.47852,19.8252,44.25586c12.3584,12.04688,28.67188,18.68164,45.93457,18.68164
		c17.25977,0,33.57031-6.63477,45.92969-18.68164c12.08105-11.7793,19.09766-27.45703,19.82715-44.25586H47.13574z"/>
</g>
<g>
	<path fill="#FFFFFF" d="M145.29785,96.66553c-25.83887,0-46.80762-20.21875-47.73828-46.03125
		c-0.00781-0.21875,0.07324-0.42969,0.22461-0.58594c0.15137-0.1582,0.36035-0.24609,0.57812-0.24609h93.86914
		c0.21777,0,0.42676,0.08789,0.57812,0.24609c0.15137,0.15625,0.23242,0.36719,0.22461,0.58594
		C192.10352,76.44678,171.13574,96.66553,145.29785,96.66553z M99.20215,51.40771
		c1.31543,24.54492,21.4043,43.65234,46.0957,43.65234c24.68945,0,44.77832-19.10742,46.09375-43.65234H99.20215z"/>
</g>
<g>
	<path fill="#FFFFFF" d="M185.73145,81.03467c-17.20605,0-31.20312-13.99609-31.20312-31.20117
		c0-17.20312,13.99707-31.19922,31.20312-31.19922c17.20312,0,31.19922,13.99609,31.19922,31.19922
		C216.93066,67.03857,202.93457,81.03467,185.73145,81.03467z M185.73145,19.88428c-16.5166,0-29.95312,13.43555-29.95312,29.94922
		c0,16.51562,13.43652,29.95117,29.95312,29.95117c16.51367,0,29.94922-13.43555,29.94922-29.95117
		C215.68066,33.31982,202.24512,19.88428,185.73145,19.88428z"/>
</g>
<g>
	<path fill="#FFFFFF" d="M201.30566,71.4585c-11.92383,0-21.62402-9.70117-21.62402-21.625s9.7002-21.625,21.62402-21.625
		c11.92578,0,21.62793,9.70117,21.62793,21.625S213.23145,71.4585,201.30566,71.4585z M201.30566,29.10889
		c-11.42676,0-20.72363,9.29688-20.72363,20.72461s9.29688,20.72461,20.72363,20.72461
		c11.42969,0,20.72754-9.29688,20.72754-20.72461S212.73535,29.10889,201.30566,29.10889z"/>
</g>
<g>
	<path fill="#FFFFFF" d="M217.1123,60.16553c-5.91699,0-10.73047-4.81445-10.73047-10.73242
		c0-5.91699,4.81348-10.73047,10.73047-10.73047c5.91797,0,10.73242,4.81348,10.73242,10.73047
		C227.84473,55.35107,223.03027,60.16553,217.1123,60.16553z M217.1123,39.20264c-5.64062,0-10.23047,4.58984-10.23047,10.23047
		c0,5.64258,4.58984,10.23242,10.23047,10.23242c5.64258,0,10.23242-4.58984,10.23242-10.23242
		C227.34473,43.79248,222.75488,39.20264,217.1123,39.20264z"/>
</g>
<g>
	<path fill="#FFFFFF" d="M22.16504,20.39795h-6.27539c-0.32812,0-0.42676-0.19629-0.42676-0.49219v-0.49219
		c0-0.26367,0.19727-0.42773,0.42676-0.42773H30.0166c0.2627,0,0.42676,0.19727,0.42676,0.42773v0.55859
		c0,0.22949-0.16406,0.42578-0.42676,0.42578h-6.30762v21.15723c0,0.22949-0.19727,0.42676-0.52637,0.42676H22.5918
		c-0.22949,0-0.42676-0.19727-0.42676-0.42676V20.39795z"/>
	<path fill="#FFFFFF" d="M34.84766,19.41357c0-0.23047,0.16406-0.42773,0.42578-0.42773h8.14844
		c4.00781,0,7.32617,3.02246,7.32617,7.03027c0,3.31836-2.30078,5.97949-5.4209,6.86621l4.7959,8.50879
		c0.16406,0.2627,0.09863,0.59082-0.22949,0.59082H48.875c-0.23047,0-0.36133-0.09766-0.45996-0.29492l-4.76367-8.60742
		c-0.42676,0.0332-0.78809,0.0332-1.21582,0.0332h-6.04492v8.44238c0,0.22949-0.19727,0.42676-0.52539,0.42676h-0.5918
		c-0.22949,0-0.42578-0.19727-0.42578-0.42676V19.41357z M43.35547,31.73193c3.1543,0,5.81445-2.46289,5.81445-5.71582
		c0-3.12012-2.66016-5.51855-5.84766-5.51855h-6.89844v11.23438H43.35547z"/>
	<path fill="#FFFFFF" d="M54.23242,41.58838l10.11719-22.86523c0.06641-0.13184,0.23047-0.22949,0.39453-0.22949h0.09961
		c0.16406,0,0.32812,0.03223,0.42578,0.22949l10.02051,22.86523c0.06543,0.19629,0.06543,0.39355-0.2959,0.39355h-0.85352
		c-0.23047,0-0.39453-0.16406-0.46094-0.29492l-2.66016-6.04492h-12.5498l-2.62793,6.04492
		c-0.06641,0.13086-0.23047,0.29492-0.45996,0.29492h-0.91992C54.23242,41.98193,54.13281,41.85107,54.23242,41.58838z
		 M70.46094,34.36084l-5.61719-13.24023h-0.06641l-5.7168,13.24023H70.46094z"/>
	<path fill="#FFFFFF" d="M77.67188,39.28857l0.42773-0.39453c0.16406-0.16406,0.32812-0.22949,0.55859,0
		c0.72266,0.72266,1.87207,2.03711,4.04004,2.03711c2.79297,0,4.79688-1.93848,4.79688-5.84766V19.41357
		c0-0.26367,0.19727-0.42773,0.45898-0.42773h0.6582c0.22949,0,0.42676,0.19727,0.42676,0.42773v15.63672
		c0,4.59961-2.46387,7.26074-6.37402,7.26074c-2.89062,0-4.46777-1.77441-5.02637-2.46387
		C77.50781,39.6499,77.50781,39.45264,77.67188,39.28857z"/>
	<path fill="#FFFFFF" d="M93.47461,19.41357c0-0.23047,0.19727-0.42773,0.42676-0.42773h13.17383
		c0.22949,0,0.42676,0.19727,0.42676,0.42773v0.55859c0,0.22949-0.19727,0.42578-0.42676,0.42578H95.05176v9.06836h10.41309
		c0.23047,0,0.42773,0.19727,0.42773,0.42578v0.55859c0,0.23047-0.19727,0.42773-0.42773,0.42773H95.05176v9.72461h12.02344
		c0.22949,0,0.42676,0.19727,0.42676,0.42676v0.52539c0,0.22949-0.19727,0.42676-0.42676,0.42676H93.90137
		c-0.22949,0-0.42676-0.19727-0.42676-0.42676V19.41357z"/>
	<path fill="#FFFFFF" d="M123.37207,18.65771c3.35059,0,5.84766,1.11719,7.98242,3.05469
		c0.16504,0.16406,0.19727,0.42773,0.0332,0.5918l-0.52539,0.55859c-0.19727,0.19727-0.36133,0.16406-0.55859-0.0332
		c-1.87305-1.67578-4.23828-2.69336-6.93164-2.69336c-5.74902,0-10.25,4.69727-10.25,10.38086
		c0,5.65039,4.50098,10.31543,10.25,10.31543c2.8252,0,4.96094-1.11621,6.93164-2.75879
		c0.19727-0.16504,0.39453-0.16504,0.52539-0.06641l0.55859,0.55859c0.16406,0.13086,0.16406,0.39453,0,0.55859
		c-2.2334,2.16797-5.0918,3.18652-8.01562,3.18652c-6.57031,0-11.89258-5.19043-11.89258-11.79395
		C111.47949,23.94678,116.80176,18.65771,123.37207,18.65771z"/>
	<path fill="#FFFFFF" d="M141.96777,20.39795h-6.27539c-0.32812,0-0.42676-0.19629-0.42676-0.49219v-0.49219
		c0-0.26367,0.19727-0.42773,0.42676-0.42773h14.12695c0.2627,0,0.42676,0.19727,0.42676,0.42773v0.55859
		c0,0.22949-0.16406,0.42578-0.42676,0.42578h-6.30762v21.15723c0,0.22949-0.19727,0.42676-0.52539,0.42676h-0.5918
		c-0.22949,0-0.42676-0.19727-0.42676-0.42676V20.39795z"/>
</g>
<g>
	<g>
		<g>
			<rect x="15.46484" y="49.49756" fill="#FFFFFF" width="218.00098" height="1.41797"/>
			<path fill="#FFFFFF" d="M233.46582,51.66553H15.46484c-0.41406,0-0.75-0.33594-0.75-0.75v-1.41797
				c0-0.41406,0.33594-0.75,0.75-0.75h218.00098c0.41406,0,0.75,0.33594,0.75,0.75v1.41797
				C234.21582,51.32959,233.87988,51.66553,233.46582,51.66553z"/>
		</g>
	</g>
</g>
</svg>
