<?xml version="1.0" encoding="utf-8"?>
<!-- Generator: Adobe Illustrator 16.0.4, SVG Export Plug-In . SVG Version: 6.00 Build 0)  -->
<!DOCTYPE svg PUBLIC "-//W3C//DTD SVG 1.1//EN" "http://www.w3.org/Graphics/SVG/1.1/DTD/svg11.dtd">
<svg version="1.1" id="Layer_1" xmlns="http://www.w3.org/2000/svg" xmlns:xlink="http://www.w3.org/1999/xlink" x="0px" y="0px"
	 width="45.35449px" height="45.35449px" viewBox="0 0 45.35449 45.35449" enable-background="new 0 0 45.35449 45.35449"
	 xml:space="preserve">
<rect x="-14.1416" y="-14.71484" width="73.33398" height="74.33301"/>
<g>
	<path fill="#FFFFFF" d="M21.60352,39.15527c-9.46387,0-17.16211-7.69727-17.16211-17.16016
		c0-9.46191,7.69824-17.16016,17.16211-17.16016c9.46094,0,17.15918,7.69824,17.15918,17.16016
		C38.7627,31.45801,31.06445,39.15527,21.60352,39.15527z M21.60352,5.52246c-9.08496,0-16.47461,7.39062-16.47461,16.47266
		c0,9.08398,7.38965,16.47266,16.47461,16.47266c9.08203,0,16.47168-7.38867,16.47168-16.47266
		C38.0752,12.91309,30.68555,5.52246,21.60352,5.52246z"/>
</g>
<g>
	<path fill="#FFFFFF" d="M30.16895,33.88867c-6.55762,0-11.89355-5.33496-11.89355-11.89355s5.33594-11.89453,11.89355-11.89453
		c6.55957,0,11.89551,5.33594,11.89551,11.89453S36.72852,33.88867,30.16895,33.88867z M30.16895,10.59668
		c-6.28516,0-11.39844,5.11328-11.39844,11.39844s5.11328,11.39844,11.39844,11.39844c6.28613,0,11.39941-5.11328,11.39941-11.39844
		S36.45508,10.59668,30.16895,10.59668z"/>
</g>
<g>
	<path fill="#FFFFFF" d="M38.8623,27.67773c-3.25488,0-5.90137-2.64746-5.90137-5.90332c0-3.25391,2.64648-5.90137,5.90137-5.90137
		s5.90332,2.64746,5.90332,5.90137C44.76562,25.03027,42.11719,27.67773,38.8623,27.67773z M38.8623,16.14746
		c-3.10254,0-5.62598,2.52539-5.62598,5.62695c0,3.10352,2.52344,5.62793,5.62598,5.62793
		c3.10352,0,5.62793-2.52441,5.62793-5.62793C44.49023,18.67285,41.96582,16.14746,38.8623,16.14746z"/>
</g>
<g>
	<g>
		<g>
			<rect x="-14.19434" y="21.80957" fill="#FFFFFF" width="73.59375" height="0.78027"/>
			<path fill="#FFFFFF" d="M59.39941,23.00293h-73.59375c-0.22754,0-0.41211-0.18555-0.41211-0.41309v-0.78027
				c0-0.22656,0.18457-0.41211,0.41211-0.41211h73.59375c0.22656,0,0.41211,0.18555,0.41211,0.41211v0.78027
				C59.81152,22.81738,59.62598,23.00293,59.39941,23.00293z"/>
		</g>
	</g>
</g>
</svg>
