<?xml version="1.0" encoding="utf-8"?>
<!-- Generator: Adobe Illustrator 16.0.4, SVG Export Plug-In . SVG Version: 6.00 Build 0)  -->
<!DOCTYPE svg PUBLIC "-//W3C//DTD SVG 1.1//EN" "http://www.w3.org/Graphics/SVG/1.1/DTD/svg11.dtd">
<svg version="1.1" id="Layer_1" xmlns="http://www.w3.org/2000/svg" xmlns:xlink="http://www.w3.org/1999/xlink" x="0px" y="0px"
	 width="240.94531px" height="136.0625px" viewBox="0 0 240.94531 136.0625" enable-background="new 0 0 240.94531 136.0625"
	 xml:space="preserve">
<rect x="-14.80078" y="-14.69238" width="270" height="164.76172"/>
<g>
	<path fill="#FFFFFF" d="M185.73145,81.03418c-17.20605,0-31.20312-13.99609-31.20312-31.20117
		c0-17.20312,13.99707-31.19922,31.20312-31.19922c17.20312,0,31.19922,13.99609,31.19922,31.19922
		C216.93066,67.03809,202.93457,81.03418,185.73145,81.03418z M185.73145,19.88379c-16.5166,0-29.95312,13.43555-29.95312,29.94922
		c0,16.51562,13.43652,29.95117,29.95312,29.95117c16.51367,0,29.94922-13.43555,29.94922-29.95117
		C215.68066,33.31934,202.24512,19.88379,185.73145,19.88379z"/>
</g>
<g>
	<path fill="#FFFFFF" d="M201.30566,71.45801c-11.92383,0-21.62402-9.70117-21.62402-21.625s9.7002-21.625,21.62402-21.625
		c11.92578,0,21.62793,9.70117,21.62793,21.625S213.23145,71.45801,201.30566,71.45801z M201.30566,29.1084
		c-11.42676,0-20.72363,9.29688-20.72363,20.72461s9.29688,20.72461,20.72363,20.72461
		c11.42969,0,20.72754-9.29688,20.72754-20.72461S212.73535,29.1084,201.30566,29.1084z"/>
</g>
<g>
	<path fill="#FFFFFF" d="M217.1123,60.16504c-5.91699,0-10.73047-4.81445-10.73047-10.73242
		c0-5.91699,4.81348-10.73047,10.73047-10.73047c5.91797,0,10.73242,4.81348,10.73242,10.73047
		C227.84473,55.35059,223.03027,60.16504,217.1123,60.16504z M217.1123,39.20215c-5.64062,0-10.23047,4.58984-10.23047,10.23047
		c0,5.64258,4.58984,10.23242,10.23047,10.23242c5.64258,0,10.23242-4.58984,10.23242-10.23242
		C227.34473,43.79199,222.75488,39.20215,217.1123,39.20215z"/>
</g>
<g>
	<path fill="#FFFFFF" d="M22.16504,20.39746h-6.27539c-0.32812,0-0.42676-0.19629-0.42676-0.49219v-0.49219
		c0-0.26367,0.19727-0.42773,0.42676-0.42773H30.0166c0.2627,0,0.42676,0.19727,0.42676,0.42773v0.55859
		c0,0.22949-0.16406,0.42578-0.42676,0.42578h-6.30762v21.15723c0,0.22949-0.19727,0.42676-0.52637,0.42676H22.5918
		c-0.22949,0-0.42676-0.19727-0.42676-0.42676V20.39746z"/>
	<path fill="#FFFFFF" d="M34.84766,19.41309c0-0.23047,0.16406-0.42773,0.42578-0.42773h8.14844
		c4.00781,0,7.32617,3.02246,7.32617,7.03027c0,3.31836-2.30078,5.97949-5.4209,6.86621l4.7959,8.50879
		c0.16406,0.2627,0.09863,0.59082-0.22949,0.59082H48.875c-0.23047,0-0.36133-0.09766-0.45996-0.29492l-4.76367-8.60742
		c-0.42676,0.0332-0.78809,0.0332-1.21582,0.0332h-6.04492v8.44238c0,0.22949-0.19727,0.42676-0.52539,0.42676h-0.5918
		c-0.22949,0-0.42578-0.19727-0.42578-0.42676V19.41309z M43.35547,31.73145c3.1543,0,5.81445-2.46289,5.81445-5.71582
		c0-3.12012-2.66016-5.51855-5.84766-5.51855h-6.89844v11.23438H43.35547z"/>
	<path fill="#FFFFFF" d="M54.23242,41.58789l10.11719-22.86523c0.06641-0.13184,0.23047-0.22949,0.39453-0.22949h0.09961
		c0.16406,0,0.32812,0.03223,0.42578,0.22949l10.02051,22.86523c0.06543,0.19629,0.06543,0.39355-0.2959,0.39355h-0.85352
		c-0.23047,0-0.39453-0.16406-0.46094-0.29492l-2.66016-6.04492h-12.5498l-2.62793,6.04492
		c-0.06641,0.13086-0.23047,0.29492-0.45996,0.29492h-0.91992C54.23242,41.98145,54.13281,41.85059,54.23242,41.58789z
		 M70.46094,34.36035l-5.61719-13.24023h-0.06641l-5.7168,13.24023H70.46094z"/>
	<path fill="#FFFFFF" d="M77.67188,39.28809l0.42773-0.39453c0.16406-0.16406,0.32812-0.22949,0.55859,0
		c0.72266,0.72266,1.87207,2.03711,4.04004,2.03711c2.79297,0,4.79688-1.93848,4.79688-5.84766V19.41309
		c0-0.26367,0.19727-0.42773,0.45898-0.42773h0.6582c0.22949,0,0.42676,0.19727,0.42676,0.42773V35.0498
		c0,4.59961-2.46387,7.26074-6.37402,7.26074c-2.89062,0-4.46777-1.77441-5.02637-2.46387
		C77.50781,39.64941,77.50781,39.45215,77.67188,39.28809z"/>
	<path fill="#FFFFFF" d="M93.47461,19.41309c0-0.23047,0.19727-0.42773,0.42676-0.42773h13.17383
		c0.22949,0,0.42676,0.19727,0.42676,0.42773v0.55859c0,0.22949-0.19727,0.42578-0.42676,0.42578H95.05176v9.06836h10.41309
		c0.23047,0,0.42773,0.19727,0.42773,0.42578v0.55859c0,0.23047-0.19727,0.42773-0.42773,0.42773H95.05176v9.72461h12.02344
		c0.22949,0,0.42676,0.19727,0.42676,0.42676v0.52539c0,0.22949-0.19727,0.42676-0.42676,0.42676H93.90137
		c-0.22949,0-0.42676-0.19727-0.42676-0.42676V19.41309z"/>
	<path fill="#FFFFFF" d="M123.37207,18.65723c3.35059,0,5.84766,1.11719,7.98242,3.05469
		c0.16504,0.16406,0.19727,0.42773,0.0332,0.5918l-0.52539,0.55859c-0.19727,0.19727-0.36133,0.16406-0.55859-0.0332
		c-1.87305-1.67578-4.23828-2.69336-6.93164-2.69336c-5.74902,0-10.25,4.69727-10.25,10.38086
		c0,5.65039,4.50098,10.31543,10.25,10.31543c2.8252,0,4.96094-1.11621,6.93164-2.75879
		c0.19727-0.16504,0.39453-0.16504,0.52539-0.06641l0.55859,0.55859c0.16406,0.13086,0.16406,0.39453,0,0.55859
		c-2.2334,2.16797-5.0918,3.18652-8.01562,3.18652c-6.57031,0-11.89258-5.19043-11.89258-11.79395
		C111.47949,23.94629,116.80176,18.65723,123.37207,18.65723z"/>
	<path fill="#FFFFFF" d="M141.96777,20.39746h-6.27539c-0.32812,0-0.42676-0.19629-0.42676-0.49219v-0.49219
		c0-0.26367,0.19727-0.42773,0.42676-0.42773h14.12695c0.2627,0,0.42676,0.19727,0.42676,0.42773v0.55859
		c0,0.22949-0.16406,0.42578-0.42676,0.42578h-6.30762v21.15723c0,0.22949-0.19727,0.42676-0.52539,0.42676h-0.5918
		c-0.22949,0-0.42676-0.19727-0.42676-0.42676V20.39746z"/>
</g>
<g>
	<g>
		<g>
			<rect x="15.46484" y="49.49707" fill="#FFFFFF" width="218.00098" height="1.41797"/>
			<path fill="#FFFFFF" d="M233.46582,51.66504H15.46484c-0.41406,0-0.75-0.33594-0.75-0.75v-1.41797
				c0-0.41406,0.33594-0.75,0.75-0.75h218.00098c0.41406,0,0.75,0.33594,0.75,0.75v1.41797
				C234.21582,51.3291,233.87988,51.66504,233.46582,51.66504z"/>
		</g>
	</g>
</g>
<g>
	<path fill="#FFFFFF" d="M96.5127,123.38965c-33.84863,0-62.4668-23.22949-70.71777-54.58105h-2.07129
		c8.2998,32.46582,37.83301,56.58105,72.78906,56.58105c16.8916,0,32.51465-5.63574,45.09277-15.11621
		c-2.80469,1.31055-5.69824,2.41797-8.65918,3.33105C122.2041,119.81543,109.7627,123.38965,96.5127,123.38965z"/>
	<path fill="#FFFFFF" d="M155.01074,94.03613c1.01367-0.21387,2.01367-0.46094,3.00098-0.74023
		c8.32812-11.85254,13.32031-26.19629,13.60156-41.66602h-1.98242C169.33594,67.50391,163.92969,82.15918,155.01074,94.03613z"/>
	<path fill="#FFFFFF" d="M156.54688,95.33984c-1,0.23926-2.01465,0.44141-3.03809,0.61719
		c-3.73926,4.65137-8.03027,8.83789-12.77832,12.45898c3.02051-1.41211,5.93066-3.06543,8.71973-4.93457
		C152.00293,100.94141,154.37598,98.2207,156.54688,95.33984z"/>
	<path fill="#FFFFFF" d="M158.8252,95.88574c-2.91602,2.84277-6.05859,5.37207-9.375,7.5957
		c-2.45312,2.43945-5.07715,4.70605-7.84473,6.79199c6.81641-3.18652,13.11914-7.52539,18.65234-12.91895
		c1.56641-1.52734,3.04883-3.11914,4.44727-4.76758c-1.38477,0.61133-2.80371,1.1582-4.25488,1.63867
		C159.91504,94.78418,159.38184,95.34375,158.8252,95.88574z"/>
	<path fill="#FFFFFF" d="M66.96094,95.88574C59.12891,88.25,53.44141,78.9668,50.2002,68.80859h-2.14941
		c3.30566,10.71875,9.24121,20.51562,17.47852,28.5459c12.74316,12.42383,29.56445,19.26562,47.36621,19.26562
		c6.8916,0,13.63184-1.03711,20.05078-3.01562c2.70898-1.56641,5.30762-3.2998,7.78418-5.18848
		c-8.61328,4.02441-18.07129,6.15137-27.83496,6.15137C95.63281,114.56738,79.31934,107.93262,66.96094,95.88574z"/>
	<path fill="#FFFFFF" d="M171.61328,51.62988h7.03906c-0.64551,14.86914-6.22461,28.85352-15.87402,40.04004
		c1.45898-0.5918,2.87695-1.2627,4.25684-1.99512c8.34863-11.00684,13.12109-24.2666,13.66602-38.26758h-9.08203
		C171.61816,51.48145,171.61426,51.55566,171.61328,51.62988z"/>
	<path fill="#FFFFFF" d="M140.73047,108.41602c-2.47656,1.88867-5.0752,3.62207-7.78418,5.18848
		c2.96094-0.91309,5.85449-2.02051,8.65918-3.33105c2.76758-2.08594,5.3916-4.35254,7.84473-6.79199
		C146.66113,105.35059,143.75098,107.00391,140.73047,108.41602z"/>
	<path fill="#FFFFFF" d="M145.29785,95.05957c-18.42871,0-34.28906-10.64648-41.69824-26.25098h-1.77734
		c7.52148,16.52539,24.13281,27.85645,43.47559,27.85645c2.80273,0,5.54297-0.25098,8.21094-0.70801
		c0.50879-0.63379,1.01367-1.27051,1.50195-1.9209C151.87891,94.7002,148.63281,95.05957,145.29785,95.05957z"/>
	<path fill="#FFFFFF" d="M156.54688,95.33984c1.32422-0.31641,2.625-0.69141,3.90332-1.11426
		c0.7998-0.83496,1.57812-1.68555,2.32812-2.55566c-1.54688,0.62793-3.13965,1.16602-4.7666,1.62598
		C157.5293,93.98242,157.05078,94.6709,156.54688,95.33984z"/>
	<path fill="#FFFFFF" d="M193.03418,50.63379c0.00781-0.21875-0.07324-0.42969-0.22461-0.58594
		c-0.15137-0.1582-0.36035-0.24609-0.57812-0.24609h-11.90918c0.04199,0.03125,0.0918,0.0498,0.12891,0.08789
		c0.19336,0.19922,0.29785,0.4668,0.29004,0.74414c-0.00684,0.25879-0.03027,0.51465-0.04004,0.77344h10.69043
		c-0.89648,16.72363-10.5127,30.91699-24.35645,38.26758c-0.75,0.98828-1.52344,1.96094-2.33008,2.91211
		C180.91992,85.42676,192.35254,69.53613,193.03418,50.63379z"/>
	<path fill="#FFFFFF" d="M153.50879,95.95703c1.02344-0.17578,2.03809-0.37793,3.03809-0.61719
		c0.50391-0.66895,0.98242-1.35742,1.46484-2.04395c-0.9873,0.2793-1.9873,0.52637-3.00098,0.74023
		C154.52246,94.68652,154.01758,95.32324,153.50879,95.95703z"/>
	<path fill="#FFFFFF" d="M171.35254,49.89941c0.1875,0.1875,0.29199,0.44336,0.29102,0.71094s-0.01953,0.53027-0.02441,0.79688
		h9.08203c0.00977-0.25879,0.0332-0.51465,0.04004-0.77344c0.00781-0.27734-0.09668-0.54492-0.29004-0.74414
		c-0.03711-0.03809-0.08691-0.05664-0.12891-0.08789h-9.11523C171.25488,49.83594,171.31055,49.85742,171.35254,49.89941z"/>
	<path fill="#FFFFFF" d="M162.77832,91.66992c-0.75,0.87012-1.52832,1.7207-2.32812,2.55566
		c1.45117-0.48047,2.87012-1.02734,4.25488-1.63867c0.80664-0.95117,1.58008-1.92383,2.33008-2.91211
		C165.65527,90.40723,164.2373,91.07812,162.77832,91.66992z"/>
</g>
<g>
	<path fill="#FFFFFF" d="M24.53125,61.32812c-0.3916,0.41992-0.8418,0.63086-1.34961,0.63086
		c-0.29688,0-0.57031-0.06445-0.82227-0.19336s-0.46973-0.29883-0.65332-0.50977c-0.18262-0.21094-0.32812-0.45117-0.43457-0.72168
		c-0.10547-0.27051-0.15918-0.5498-0.15918-0.83789c0-0.2998,0.05176-0.58398,0.15625-0.85254
		c0.10449-0.26953,0.24805-0.50684,0.43066-0.71289c0.18359-0.20605,0.40234-0.36914,0.65625-0.49023
		c0.25488-0.12109,0.5293-0.18164,0.82617-0.18164c0.42871,0,0.78125,0.08984,1.05859,0.26855s0.48828,0.41309,0.63477,0.7002
		l-0.43164,0.2998c-0.13281-0.25879-0.31055-0.4502-0.53125-0.5752s-0.46875-0.1875-0.74414-0.1875
		c-0.22461,0-0.42871,0.04883-0.61133,0.14746c-0.18359,0.09766-0.33984,0.22754-0.46875,0.3877
		c-0.12988,0.16016-0.22949,0.3457-0.30078,0.55566c-0.07031,0.20996-0.10547,0.42871-0.10547,0.65332
		c0,0.2373,0.03906,0.46094,0.11816,0.67188s0.1875,0.39648,0.3252,0.55664c0.13672,0.16016,0.2998,0.28613,0.4873,0.37793
		c0.1875,0.09082,0.3916,0.1377,0.6123,0.1377c0.4834,0,0.91895-0.23438,1.30664-0.7002v-0.6123h-0.95703v-0.42578h1.43164v2.21289
		h-0.47461V61.32812z"/>
	<path fill="#FFFFFF" d="M26.01855,61.92773v-4.4375h1.89941c0.19629,0,0.37695,0.04102,0.54102,0.12207
		s0.30664,0.18945,0.42578,0.3252c0.11816,0.13477,0.21094,0.28711,0.27734,0.45605s0.09961,0.34082,0.09961,0.51562
		c0,0.15332-0.02148,0.30273-0.06445,0.44629c-0.04492,0.14453-0.10742,0.27441-0.1875,0.39062
		c-0.08203,0.11719-0.17969,0.2168-0.29492,0.30078c-0.11426,0.08301-0.24219,0.14355-0.38379,0.18066l1.0752,1.7002h-0.6377
		l-1.0127-1.59375h-1.1748v1.59375H26.01855z M26.58105,59.83398h1.34375c0.11621,0,0.22168-0.02539,0.31543-0.0752
		s0.17383-0.11816,0.24023-0.20312c0.06738-0.08496,0.11914-0.18457,0.15625-0.29688
		c0.03809-0.1123,0.05664-0.22949,0.05664-0.34961c0-0.125-0.02148-0.24316-0.06543-0.35352s-0.10254-0.20801-0.1748-0.29395
		c-0.07324-0.08496-0.1582-0.15234-0.25586-0.19922c-0.09863-0.04883-0.20117-0.07227-0.31055-0.07227h-1.30566V59.83398z"/>
	<path fill="#FFFFFF" d="M32.08105,61.95898c-0.3125,0-0.59668-0.06348-0.85254-0.19043
		c-0.25684-0.12793-0.47656-0.2959-0.66016-0.50684c-0.18359-0.20996-0.32422-0.45117-0.4248-0.72168
		c-0.09961-0.27051-0.14941-0.54785-0.14941-0.83105c0-0.2959,0.05273-0.5791,0.15918-0.84961
		c0.10645-0.27148,0.25293-0.51074,0.44043-0.71875c0.1875-0.20898,0.40918-0.375,0.66602-0.49707
		c0.25586-0.12305,0.53418-0.18457,0.83398-0.18457c0.3125,0,0.5957,0.06543,0.84961,0.19727
		c0.25391,0.13086,0.47266,0.30273,0.65625,0.51562c0.18359,0.21191,0.3252,0.45312,0.42578,0.72168
		c0.09961,0.26855,0.14941,0.54199,0.14941,0.82129c0,0.29688-0.05273,0.58008-0.15918,0.85059s-0.25195,0.50879-0.4375,0.71582
		c-0.18555,0.20605-0.40625,0.37109-0.66211,0.49316C32.65918,61.89746,32.38086,61.95898,32.08105,61.95898z M30.5625,59.70898
		c0,0.22461,0.03711,0.44336,0.10938,0.65332s0.17578,0.39648,0.30957,0.55957c0.13379,0.16211,0.29395,0.29102,0.48145,0.38672
		s0.39551,0.14453,0.625,0.14453c0.2373,0,0.44922-0.05078,0.63672-0.15332s0.34766-0.23535,0.47852-0.40039
		s0.23145-0.35059,0.2998-0.55957c0.06934-0.20801,0.10352-0.41797,0.10352-0.63086c0-0.22461-0.03613-0.44336-0.10938-0.65332
		s-0.17676-0.39551-0.3125-0.55566s-0.2959-0.28906-0.48145-0.38477s-0.39062-0.14355-0.61523-0.14355
		c-0.23828,0-0.4502,0.0498-0.6377,0.14941c-0.1875,0.10059-0.34668,0.23145-0.47852,0.39453
		c-0.13086,0.16211-0.23145,0.34766-0.30273,0.55566S30.5625,59.49219,30.5625,59.70898z"/>
	<path fill="#FFFFFF" d="M36.56836,57.51562h0.53125l0.58789,1.54297l0.59375-1.54297h0.53125l-0.76953,1.93066l0.7627,1.83105
		l1.5-3.78711h0.6123l-1.85547,4.4375h-0.48828l-0.88086-2.09375l-0.8877,2.09375h-0.4873l-1.84961-4.4375h0.60547l1.50684,3.78711
		l0.75586-1.83105L36.56836,57.51562z"/>
	<path fill="#FFFFFF" d="M41.65625,61.92773v-4.4375h0.5625v4.4375H41.65625z"/>
	<path fill="#FFFFFF" d="M44,58.54004v3.3877h-0.5625v-4.4375h0.4375l2.75,3.45605v-3.4502h0.5625v4.43164h-0.47461L44,58.54004z"/>
	<path fill="#FFFFFF" d="M51.53711,61.32812c-0.39062,0.41992-0.8418,0.63086-1.34961,0.63086
		c-0.2959,0-0.57031-0.06445-0.82227-0.19336s-0.46875-0.29883-0.65234-0.50977s-0.32812-0.45117-0.43457-0.72168
		s-0.15918-0.5498-0.15918-0.83789c0-0.2998,0.05176-0.58398,0.15625-0.85254c0.10352-0.26953,0.24805-0.50684,0.43066-0.71289
		c0.18359-0.20605,0.40234-0.36914,0.65625-0.49023c0.25488-0.12109,0.5293-0.18164,0.8252-0.18164
		c0.42969,0,0.78223,0.08984,1.05957,0.26855c0.27637,0.17871,0.48828,0.41309,0.63379,0.7002l-0.43066,0.2998
		c-0.13379-0.25879-0.31055-0.4502-0.53125-0.5752c-0.22168-0.125-0.46875-0.1875-0.74414-0.1875
		c-0.22461,0-0.42871,0.04883-0.6123,0.14746c-0.18359,0.09766-0.33984,0.22754-0.46875,0.3877s-0.22852,0.3457-0.2998,0.55566
		s-0.10645,0.42871-0.10645,0.65332c0,0.2373,0.03906,0.46094,0.11914,0.67188c0.07812,0.21094,0.1875,0.39648,0.32422,0.55664
		c0.1377,0.16016,0.30078,0.28613,0.48828,0.37793c0.1875,0.09082,0.39062,0.1377,0.6123,0.1377
		c0.4834,0,0.91895-0.23438,1.30566-0.7002v-0.6123h-0.95605v-0.42578h1.43164v2.21289h-0.47559V61.32812z"/>
	<path fill="#FFFFFF" d="M57.77539,57.99023h-1.53125v3.9375h-0.5625v-3.9375h-1.53125v-0.5h3.625V57.99023z"/>
	<path fill="#FFFFFF" d="M62.13672,57.49023v4.4375h-0.5625v-2.01855h-2.44336v2.01855h-0.5625v-4.4375h0.5625v1.91895h2.44336
		v-1.91895H62.13672z"/>
	<path fill="#FFFFFF" d="M66.36914,61.42773v0.5h-3.01367v-4.4375h2.95703v0.5h-2.39453v1.4375H66v0.46875h-2.08203v1.53125
		H66.36914z"/>
	<path fill="#FFFFFF" d="M69.03125,61.92773v-4.43164h0.5625v2.4502l2.28711-2.45605h0.60547l-1.78125,1.95605l1.88184,2.48145
		h-0.6123l-1.61328-2.15625l-0.76758,0.7998v1.35645H69.03125z"/>
	<path fill="#FFFFFF" d="M73.82422,58.54004v3.3877h-0.5625v-4.4375h0.4375l2.75,3.45605v-3.4502h0.5625v4.43164h-0.47461
		L73.82422,58.54004z"/>
	<path fill="#FFFFFF" d="M80.03125,61.95898c-0.3125,0-0.59766-0.06348-0.85352-0.19043
		c-0.25586-0.12793-0.47656-0.2959-0.65918-0.50684c-0.18359-0.20996-0.3252-0.45117-0.4248-0.72168
		s-0.15039-0.54785-0.15039-0.83105c0-0.2959,0.05273-0.5791,0.16016-0.84961c0.10547-0.27148,0.25195-0.51074,0.43945-0.71875
		c0.1875-0.20898,0.41016-0.375,0.66602-0.49707c0.25586-0.12305,0.53516-0.18457,0.83398-0.18457
		c0.3125,0,0.5957,0.06543,0.85059,0.19727c0.25391,0.13086,0.47266,0.30273,0.65625,0.51562
		c0.18262,0.21191,0.3252,0.45312,0.4248,0.72168s0.15039,0.54199,0.15039,0.82129c0,0.29688-0.05273,0.58008-0.16016,0.85059
		c-0.10547,0.27051-0.25195,0.50879-0.4375,0.71582c-0.18555,0.20605-0.40625,0.37109-0.66211,0.49316
		C80.60938,61.89746,80.33105,61.95898,80.03125,61.95898z M78.51172,59.70898c0,0.22461,0.03711,0.44336,0.10938,0.65332
		c0.07324,0.20996,0.17578,0.39648,0.31055,0.55957c0.13281,0.16211,0.29297,0.29102,0.48047,0.38672s0.39648,0.14453,0.625,0.14453
		c0.23828,0,0.4502-0.05078,0.6377-0.15332s0.34668-0.23535,0.47754-0.40039c0.13184-0.16504,0.23242-0.35059,0.30078-0.55957
		c0.06836-0.20801,0.10352-0.41797,0.10352-0.63086c0-0.22461-0.03711-0.44336-0.10938-0.65332
		c-0.07422-0.20996-0.17773-0.39551-0.3125-0.55566c-0.13672-0.16016-0.29688-0.28906-0.48242-0.38477
		s-0.39062-0.14355-0.61523-0.14355c-0.2373,0-0.44922,0.0498-0.63672,0.14941c-0.1875,0.10059-0.34766,0.23145-0.47852,0.39453
		c-0.13086,0.16211-0.23242,0.34766-0.30273,0.55566C78.54688,59.2793,78.51172,59.49219,78.51172,59.70898z"/>
	<path fill="#FFFFFF" d="M84.51758,57.51562h0.53125l0.58789,1.54297l0.59375-1.54297h0.53125l-0.76855,1.93066l0.7627,1.83105
		l1.5-3.78711h0.6123l-1.85645,4.4375h-0.4873l-0.88184-2.09375l-0.88672,2.09375h-0.48828l-1.84961-4.4375h0.60645l1.50684,3.78711
		l0.75586-1.83105L84.51758,57.51562z"/>
	<path fill="#FFFFFF" d="M89.73047,61.92773v-4.4375h0.5625v3.9375h2.47461v0.5H89.73047z"/>
	<path fill="#FFFFFF" d="M96.54883,61.42773v0.5h-3.01172v-4.4375h2.95508v0.5h-2.39258v1.4375h2.08008v0.46875h-2.08008v1.53125
		H96.54883z"/>
	<path fill="#FFFFFF" d="M97.47461,61.92773v-4.4375h1.53711c0.35352,0,0.66602,0.05859,0.93359,0.1748
		c0.26953,0.11621,0.49316,0.27539,0.67188,0.47559c0.17969,0.19922,0.31445,0.43359,0.4043,0.70312
		c0.08887,0.26855,0.13379,0.55469,0.13379,0.85938c0,0.33691-0.0498,0.64258-0.14941,0.91504
		c-0.10059,0.27246-0.24414,0.50684-0.43164,0.7002s-0.41406,0.34375-0.67773,0.4502
		c-0.26562,0.10645-0.56055,0.15918-0.88477,0.15918H97.47461z M100.58594,59.70312c0-0.25-0.0332-0.48047-0.10254-0.69141
		c-0.06934-0.20996-0.1709-0.39062-0.30566-0.54004c-0.13574-0.15039-0.30176-0.26855-0.49805-0.35352
		c-0.19531-0.08496-0.41797-0.12793-0.66797-0.12793h-0.97461v3.4375h0.97461c0.25391,0,0.48047-0.04395,0.67773-0.13086
		c0.19824-0.08789,0.36328-0.20898,0.49414-0.36328s0.23047-0.33594,0.2998-0.54688
		C100.55273,60.17676,100.58594,59.94922,100.58594,59.70312z"/>
	<path fill="#FFFFFF" d="M105.23633,61.32812c-0.39062,0.41992-0.8418,0.63086-1.34961,0.63086
		c-0.2959,0-0.57031-0.06445-0.82227-0.19336s-0.46875-0.29883-0.65234-0.50977s-0.32812-0.45117-0.43457-0.72168
		s-0.15918-0.5498-0.15918-0.83789c0-0.2998,0.05176-0.58398,0.15625-0.85254c0.10352-0.26953,0.24805-0.50684,0.43066-0.71289
		c0.18359-0.20605,0.40234-0.36914,0.65625-0.49023c0.25488-0.12109,0.5293-0.18164,0.8252-0.18164
		c0.42969,0,0.78223,0.08984,1.05957,0.26855c0.27637,0.17871,0.48828,0.41309,0.63379,0.7002l-0.43066,0.2998
		c-0.13379-0.25879-0.31055-0.4502-0.53125-0.5752c-0.22168-0.125-0.46875-0.1875-0.74414-0.1875
		c-0.22461,0-0.42871,0.04883-0.6123,0.14746c-0.18359,0.09766-0.33984,0.22754-0.46875,0.3877s-0.22852,0.3457-0.2998,0.55566
		s-0.10645,0.42871-0.10645,0.65332c0,0.2373,0.03906,0.46094,0.11914,0.67188c0.07812,0.21094,0.1875,0.39648,0.32422,0.55664
		c0.1377,0.16016,0.30078,0.28613,0.48828,0.37793c0.1875,0.09082,0.39062,0.1377,0.6123,0.1377
		c0.4834,0,0.91895-0.23438,1.30566-0.7002v-0.6123h-0.95605v-0.42578h1.43164v2.21289h-0.47559V61.32812z"/>
	<path fill="#FFFFFF" d="M109.73633,61.42773v0.5h-3.01172v-4.4375h2.95508v0.5h-2.39258v1.4375h2.08008v0.46875h-2.08008v1.53125
		H109.73633z"/>
	<path fill="#FFFFFF" d="M115.41211,61.42773v0.5h-3.01367v-4.4375h2.95703v0.5h-2.39453v1.4375h2.08203v0.46875h-2.08203v1.53125
		H115.41211z"/>
	<path fill="#FFFFFF" d="M115.96094,59.67773c0-0.2666,0.04688-0.53223,0.14062-0.79688s0.23242-0.50195,0.41309-0.71289
		c0.18066-0.20996,0.40332-0.37988,0.66504-0.50879c0.26367-0.12988,0.56055-0.19434,0.89453-0.19434
		c0.39551,0,0.73535,0.08984,1.01855,0.26953c0.2832,0.17871,0.49316,0.41211,0.63184,0.69922l-0.44434,0.28809
		c-0.06738-0.1416-0.14746-0.26074-0.24121-0.35645s-0.19531-0.17285-0.30566-0.23145
		c-0.11035-0.05762-0.22363-0.09961-0.34082-0.125c-0.11719-0.02441-0.23047-0.03711-0.34375-0.03711
		c-0.24609,0-0.46289,0.05078-0.65234,0.15332c-0.19043,0.10156-0.34961,0.23438-0.47852,0.39941s-0.22656,0.35059-0.29102,0.55664
		s-0.09668,0.41309-0.09668,0.62207c0,0.23242,0.03809,0.45508,0.11621,0.66504c0.07617,0.20996,0.18359,0.39746,0.32129,0.55957
		s0.2998,0.29102,0.4873,0.3877c0.1875,0.0957,0.3916,0.14355,0.61328,0.14355c0.11621,0,0.23633-0.01465,0.35938-0.04395
		c0.12207-0.02832,0.24023-0.0752,0.35254-0.14062c0.1123-0.06445,0.21777-0.14551,0.31543-0.24316s0.17773-0.21582,0.24023-0.35352
		l0.46875,0.25586c-0.07031,0.16699-0.16992,0.31445-0.29688,0.44141s-0.27051,0.23438-0.43066,0.32129
		c-0.16113,0.08789-0.33008,0.1543-0.50879,0.2002c-0.17969,0.0459-0.35547,0.06836-0.52539,0.06836
		c-0.30469,0-0.58398-0.06641-0.83789-0.19922c-0.25391-0.13379-0.47363-0.30762-0.65918-0.52246
		c-0.18555-0.21387-0.3291-0.45801-0.43066-0.73145C116.0127,60.23926,115.96094,59.96094,115.96094,59.67773z"/>
	<path fill="#FFFFFF" d="M122.41797,61.95898c-0.3125,0-0.59766-0.06348-0.85352-0.19043
		c-0.25586-0.12793-0.47656-0.2959-0.65918-0.50684c-0.18359-0.20996-0.3252-0.45117-0.4248-0.72168
		s-0.15039-0.54785-0.15039-0.83105c0-0.2959,0.05273-0.5791,0.16016-0.84961c0.10547-0.27148,0.25195-0.51074,0.43945-0.71875
		c0.1875-0.20898,0.41016-0.375,0.66602-0.49707c0.25586-0.12305,0.53516-0.18457,0.83398-0.18457
		c0.3125,0,0.5957,0.06543,0.85059,0.19727c0.25391,0.13086,0.47266,0.30273,0.65625,0.51562
		c0.18262,0.21191,0.3252,0.45312,0.4248,0.72168s0.15039,0.54199,0.15039,0.82129c0,0.29688-0.05273,0.58008-0.16016,0.85059
		c-0.10547,0.27051-0.25195,0.50879-0.4375,0.71582c-0.18555,0.20605-0.40625,0.37109-0.66211,0.49316
		C122.99609,61.89746,122.71777,61.95898,122.41797,61.95898z M120.89844,59.70898c0,0.22461,0.03711,0.44336,0.10938,0.65332
		c0.07324,0.20996,0.17578,0.39648,0.31055,0.55957c0.13281,0.16211,0.29297,0.29102,0.48047,0.38672s0.39648,0.14453,0.625,0.14453
		c0.23828,0,0.4502-0.05078,0.6377-0.15332s0.34668-0.23535,0.47754-0.40039c0.13184-0.16504,0.23242-0.35059,0.30078-0.55957
		c0.06836-0.20801,0.10352-0.41797,0.10352-0.63086c0-0.22461-0.03711-0.44336-0.10938-0.65332
		c-0.07422-0.20996-0.17773-0.39551-0.3125-0.55566c-0.13672-0.16016-0.29688-0.28906-0.48242-0.38477
		s-0.39062-0.14355-0.61523-0.14355c-0.2373,0-0.44922,0.0498-0.63672,0.14941c-0.1875,0.10059-0.34766,0.23145-0.47852,0.39453
		c-0.13086,0.16211-0.23242,0.34766-0.30273,0.55566C120.93359,59.2793,120.89844,59.49219,120.89844,59.70898z"/>
	<path fill="#FFFFFF" d="M126.01172,58.54004v3.3877h-0.5625v-4.4375h0.4375l2.75,3.45605v-3.4502h0.5625v4.43164h-0.47559
		L126.01172,58.54004z"/>
	<path fill="#FFFFFF" d="M132.2168,61.95898c-0.3125,0-0.5957-0.06348-0.85254-0.19043
		c-0.25684-0.12793-0.47559-0.2959-0.65918-0.50684c-0.18359-0.20996-0.3252-0.45117-0.42578-0.72168
		c-0.09961-0.27051-0.14941-0.54785-0.14941-0.83105c0-0.2959,0.05371-0.5791,0.15918-0.84961
		c0.10645-0.27148,0.25391-0.51074,0.44141-0.71875c0.1875-0.20898,0.4082-0.375,0.66504-0.49707
		c0.25684-0.12305,0.53418-0.18457,0.83496-0.18457c0.3125,0,0.5957,0.06543,0.84961,0.19727
		c0.25391,0.13086,0.47266,0.30273,0.65625,0.51562c0.18359,0.21191,0.32422,0.45312,0.4248,0.72168
		s0.14941,0.54199,0.14941,0.82129c0,0.29688-0.05273,0.58008-0.1582,0.85059c-0.10742,0.27051-0.25195,0.50879-0.4375,0.71582
		c-0.18555,0.20605-0.40625,0.37109-0.66309,0.49316C132.79492,61.89746,132.51758,61.95898,132.2168,61.95898z M130.69922,59.70898
		c0,0.22461,0.03613,0.44336,0.10938,0.65332c0.07227,0.20996,0.17578,0.39648,0.30859,0.55957
		c0.13379,0.16211,0.29395,0.29102,0.48145,0.38672s0.39551,0.14453,0.625,0.14453c0.2373,0,0.4502-0.05078,0.6377-0.15332
		s0.34668-0.23535,0.47852-0.40039c0.13086-0.16504,0.23047-0.35059,0.29883-0.55957
		c0.06934-0.20801,0.10352-0.41797,0.10352-0.63086c0-0.22461-0.03613-0.44336-0.10938-0.65332
		c-0.07227-0.20996-0.17676-0.39551-0.3125-0.55566c-0.13477-0.16016-0.29492-0.28906-0.48047-0.38477
		s-0.39062-0.14355-0.61621-0.14355c-0.2373,0-0.4502,0.0498-0.6377,0.14941c-0.1875,0.10059-0.34668,0.23145-0.47852,0.39453
		c-0.13086,0.16211-0.23145,0.34766-0.30273,0.55566C130.73438,59.2793,130.69922,59.49219,130.69922,59.70898z"/>
	<path fill="#FFFFFF" d="M139.08594,61.92773v-3.43164l-1.47461,2.63184h-0.31836l-1.48242-2.63184v3.43164h-0.5625v-4.4375h0.59375
		l1.60742,2.88086l1.61133-2.88086h0.58789v4.4375H139.08594z"/>
	<path fill="#FFFFFF" d="M141.03613,57.49023l1.34375,2.3125l1.35645-2.3125h0.6123l-1.6875,2.81836v1.61914h-0.5625v-1.63086
		l-1.68164-2.80664H141.03613z"/>
</g>
</svg>
