<?xml version="1.0" encoding="utf-8"?>
<!-- Generator: Adobe Illustrator 16.0.0, SVG Export Plug-In . SVG Version: 6.00 Build 0)  -->
<!DOCTYPE svg PUBLIC "-//W3C//DTD SVG 1.1//EN" "http://www.w3.org/Graphics/SVG/1.1/DTD/svg11.dtd">
<svg version="1.1" id="Layer_1" xmlns="http://www.w3.org/2000/svg" xmlns:xlink="http://www.w3.org/1999/xlink" x="0px" y="0px"
	 width="428px" height="403px" viewBox="268.5 21.5 428 403" enable-background="new 268.5 21.5 428 403" xml:space="preserve">
<g>
	<g>
		<defs>
			<circle id="SVGID_1_" cx="457.152" cy="241.92" r="172.032"/>
		</defs>
		<clipPath id="SVGID_2_">
			<use xlink:href="#SVGID_1_"  overflow="visible"/>
		</clipPath>
		<path clip-path="url(#SVGID_2_)" d="M607.232,414.4c4.031-1.792,7.615-4.032,10.752-7.168c2.688-2.688,4.479-5.376,6.271-8.513
			c10.752,2.688,22.848-0.447,31.36-8.96c4.479-4.479,7.168-9.408,8.512-14.784c4.032-1.792,7.616-4.031,10.752-7.168
			c4.032-4.031,6.272-8.512,8.064-12.991c9.407,0.447,18.815-2.688,25.536-9.408c8.063-8.064,10.752-18.816,9.407-29.12
			c0.896-0.896,2.24-1.792,3.137-2.688c6.271-6.271,9.407-14.336,9.855-22.399c7.168-12.544,4.928-28.672-5.376-39.424
			c-12.992-12.992-34.048-12.992-47.04,0c-6.271,6.272-9.408,14.336-9.855,22.4c-3.584,6.721-4.929,14.336-3.584,21.504
			c-0.896,0.896-2.24,1.793-3.137,2.688c-4.031,4.032-6.271,8.512-8.063,12.992c-9.408-0.448-18.816,2.688-25.536,9.407
			c-4.48,4.48-7.168,9.408-8.512,14.784c-4.032,1.792-7.616,4.032-10.752,7.168c-1.792,1.792-3.137,3.584-4.48,5.376
			c-7.616-2.688-16.128-2.688-23.744,0.448c-1.792-4.032-4.479-8.063-7.616-11.647c-13.439-13.44-35.84-13.889-49.728-0.448
			c-0.896-7.616-4.48-15.232-10.304-21.057c-4.929-4.928-11.2-8.063-17.92-9.407c0.447-8.064-1.792-16.129-6.721-22.848
			c0.896-8.064-0.896-16.577-5.376-23.745c1.345-0.448,2.24-0.896,3.137-1.792c1.792-1.792,2.239-4.032,1.792-6.272
			c1.792,0,3.136-0.896,4.479-1.792c1.792-1.792,2.24-4.48,1.792-7.168c1.792,0,4.032-0.448,5.376-1.792
			c1.344-1.344,2.24-3.584,1.792-5.376c0.896-0.448,2.24-0.896,2.688-1.792c1.344-1.344,1.792-3.136,1.792-4.48
			c0.447,0,0.896-0.448,1.344-0.896c0.448-0.448,0.896-1.344,1.344-2.24c1.344,0,2.688-0.448,3.584-1.344
			c0.896-0.896,1.344-2.688,1.344-4.032c0,0,0,0,0.448,0c1.792-1.792,1.792-4.48,0-6.272s-4.479-1.792-6.271,0
			c-0.896,0.896-1.345,1.792-1.345,2.688c-1.344,0-2.688,0.448-3.584,1.344c-0.896,0.896-1.344,2.24-1.344,3.584
			c0,0,0,0.448-0.448,0.448c-2.239-0.448-4.479,0.448-6.271,1.792c-1.344,1.344-2.24,3.584-1.792,5.376c0,0-0.448,0-0.448,0.448
			c-1.792-0.448-4.032,0.448-5.824,1.792c-1.344,1.344-2.239,3.136-1.792,5.376c-2.239-0.896-5.376-0.448-7.168,1.792
			c-0.896,0.896-1.792,2.24-1.792,3.584c-2.688-0.896-5.376-0.448-7.616,1.344c-0.896,0.896-1.344,1.792-1.792,2.688
			c-3.136-1.344-6.271-1.792-9.407-2.24c-0.448-1.344-0.896-2.24-1.792-3.136c0,0-0.448-0.448-0.896-0.448
			c0.448-0.448,1.344-0.896,1.792-1.344c2.688-2.688,2.688-7.168,0-9.856l-0.448-0.448l0.448-0.448
			c1.792-1.792,2.24-4.032,1.792-6.272c1.792,0,3.584-0.448,4.928-1.792c1.345-1.344,2.24-3.584,1.792-5.376
			c1.345-0.448,2.24-0.896,3.137-1.792c1.792-1.792,2.24-4.48,1.792-7.168c1.792,0,3.136-0.896,4.479-1.792
			c1.792-1.792,2.24-4.928,1.792-7.168c0.448,0,0.448,0,0.896-0.448c1.792,0.896,3.584,0.448,4.928-0.896
			c0.896-0.896,1.344-2.688,1.344-4.032c0,0,0,0,0.448,0c1.792-1.792,1.792-4.48,0-6.272c-1.792-1.792-4.48-1.792-6.271,0
			c-0.896,0.896-1.345,1.792-1.345,2.688c-1.344,0-2.688,0.448-3.584,1.344c-0.896,0.896-1.344,2.24-1.344,3.136
			c-2.24-0.448-4.032,0.448-5.824,1.792c-1.344,1.344-1.792,2.688-1.792,4.032c-2.24-0.896-4.928-0.448-7.168,1.792
			c-1.792,1.792-2.24,3.584-1.792,5.824c-2.24-0.448-4.032,0.448-5.824,1.792c-0.447,0.448-0.896,1.344-1.344,1.792
			c-2.24-0.896-5.376-0.448-7.168,1.344c-0.448,0.448-1.344,1.344-1.344,2.24c-0.448-0.448-0.448-0.896-0.896-1.344
			c-2.688-2.688-7.168-2.688-9.855,0c-0.448,0.448-0.448,0.448-0.448,0.896c-4.032-0.896-8.512-0.896-12.544,0
			c0-1.792-0.896-3.584-2.24-4.928c-0.896-0.896-2.239-1.792-4.032-1.792c-1.344-2.24-3.136-4.032-4.928-5.824
			c-4.928-4.928-11.2-8.064-17.472-9.408c0-0.448,0-0.896-0.448-1.344c3.136-11.648,0-24.64-9.408-34.048
			c-8.064-8.064-18.816-11.2-29.12-10.304c4.48-8.512,5.376-18.816,2.24-27.776c6.272-7.168,8.96-16.576,8.512-25.984
			c7.168-0.896,13.888-4.032,19.712-9.408c3.584-3.584,5.824-7.616,7.616-11.648c10.751,2.688,22.4-0.448,30.912-8.96
			c9.408-9.408,12.097-23.296,7.616-34.944c8.512,0,17.024-3.136,23.296-9.856c12.992-12.992,12.992-34.048,0-47.04
			c-12.992-12.992-34.048-12.992-47.04,0c-4.032,4.032-7.168,8.96-8.512,14.336c-10.752-2.24-21.952,0.896-30.016,8.96
			c-8.96,8.96-11.648,21.056-8.512,32.256c-8.064,0-16.128,3.584-22.4,9.856c-6.72,6.72-9.856,15.232-9.856,23.744
			c-8.512,0.448-17.024,4.032-23.296,10.304c-9.856,9.856-12.544,24.192-8.512,36.736c-10.304,11.648-11.2,28.672-3.584,41.664
			c-2.24,0.896-4.032,2.24-5.824,4.032c-4.928,4.928-7.168,11.2-7.168,18.816c-15.68,0.448-29.12,4.928-38.08,13.888
			c-35.392,35.392-2.24,125.44,73.92,201.152c76.16,76.16,166.208,108.863,201.152,73.92c3.136-3.136,5.376-6.272,7.615-10.304
			c12.992,4.031,24.641,2.688,32.257-4.48c19.712,13.44,41.664,16.128,52.863,4.928C609.92,440.384,611.264,427.84,607.232,414.4z"
			/>
	</g>
</g>
<path d="M644.864,54.208V53.76l-0.896-0.896h-0.448c-0.447,0-7.615-1.792-17.472-1.792c-11.647,0-27.775,2.24-38.08,12.544
	l-38.976,38.976c-3.136,1.344-8.96,2.688-21.504,2.688c-23.296,0-31.36,8.512-42.112,19.264l-2.24,2.24
	c-0.896,0.896-4.479,4.48,13.889,27.776l-20.608,20.16c-0.896,0.896-1.792,2.688-1.792,4.032c0,1.344,0.448,3.136,1.792,4.032
	l8.512,8.512c2.24,2.24,5.824,2.24,8.064,0l18.815-18.816c2.24,2.688,4.032,4.48,5.824,6.272s4.032,3.584,6.272,5.824
	l-18.816,18.816c-2.24,2.24-2.24,5.824,0,8.064l8.512,8.512c0.896,0.896,2.688,1.792,4.032,1.792c1.345,0,3.136-0.448,4.032-1.792
	l20.608-20.608c5.376,4.032,19.712,14.784,25.088,14.784c1.344,0,2.239-0.448,2.688-0.896l2.24-2.24
	c10.752-10.304,18.815-18.816,19.264-42.112c0-12.096,1.345-17.92,2.24-20.608l39.424-39.424
	C652.48,91.392,645.312,56,644.864,54.208z M575.424,117.376l-9.855-3.136l39.872-23.744l-17.024,21.056l-2.24,2.688l3.584,0.896
	l9.856,2.24l-41.664,23.744l18.368-20.16l2.239-2.688L575.424,117.376z M514.048,168l-1.792-1.792l-22.4,22.4
	c-0.447,0.448-1.344,0.448-1.791,0l-8.513-8.512c-0.448-0.448-0.448-1.344,0-1.792l23.296-23.296l-0.896-1.344l-0.448-0.448
	c-7.168-8.96-14.784-20.608-14.784-23.296l1.792-1.792c10.305-10.304,17.473-17.472,38.977-17.92
	c10.752,0,18.815-1.344,23.296-3.584L590.656,67.2C600.064,57.792,614.848,56,625.6,56c6.721,0,12.097,0.896,14.784,1.344
	L614.4,82.88l-54.208,32.256l14.336,4.48l-27.776,30.912l0.896-1.344l-26.881,26.88C518.976,173.824,516.736,171.136,514.048,168z"
	/>
<circle cx="491.2" cy="72.576" r="2.688"/>
<circle cx="629.632" cy="133.504" r="2.688"/>
<circle cx="510.464" cy="68.096" r="2.24"/>
<circle cx="389.056" cy="156.352" r="2.24"/>
<circle cx="348.288" cy="311.36" r="2.24"/>
<circle cx="431.168" cy="180.544" r="4.928"/>
<circle cx="353.216" cy="258.048" r="4.928"/>
<circle cx="462.08" cy="276.416" r="2.688"/>
<circle cx="514.944" cy="268.352" r="1.792"/>
<circle cx="554.816" cy="259.84" r="4.032"/>
<circle cx="672.64" cy="197.12" r="2.688"/>
<circle cx="621.568" cy="206.528" r="3.584"/>
<circle cx="340.672" cy="193.536" r="3.584"/>
<circle cx="518.08" cy="355.712" r="1.792"/>
<circle cx="683.84" cy="188.16" r="1.792"/>
<circle cx="684.736" cy="204.736" r="1.792"/>
<circle cx="557.952" cy="36.736" r="2.24"/>
<polygon points="385.472,288.512 406.528,290.305 385.472,292.096 383.68,313.152 381.888,292.096 360.832,290.305 381.888,288.512 
	383.68,267.456 "/>
<polygon points="476.864,334.208 489.408,335.104 476.864,336.448 475.968,348.992 474.624,336.448 462.08,335.104 474.624,334.208 
	475.968,321.664 "/>
<polygon points="617.536,277.76 628.736,278.656 617.536,280 616.64,290.752 615.744,280 604.992,278.656 615.744,277.76 
	616.64,267.008 "/>
<polygon points="434.752,98.112 467.008,100.8 434.752,103.488 431.616,136.192 428.928,103.488 396.224,100.8 428.928,98.112 
	431.616,65.408 "/>
</svg>
