<?xml version="1.0" encoding="utf-8"?>
<!-- Generator: Adobe Illustrator 16.0.4, SVG Export Plug-In . SVG Version: 6.00 Build 0)  -->
<!DOCTYPE svg PUBLIC "-//W3C//DTD SVG 1.1//EN" "http://www.w3.org/Graphics/SVG/1.1/DTD/svg11.dtd">
<svg version="1.1" id="Layer_1" xmlns="http://www.w3.org/2000/svg" xmlns:xlink="http://www.w3.org/1999/xlink" x="0px" y="0px"
	 width="240.94482px" height="136.06299px" viewBox="0 0 240.94482 136.06299" enable-background="new 0 0 240.94482 136.06299"
	 xml:space="preserve">
<g>
	<path d="M96.51221,125.39062c-41.23242,0-74.93262-33.54639-75.12305-74.78076c-0.00195-0.26562,0.10352-0.52148,0.29102-0.70996
		s0.44336-0.29443,0.70898-0.29443h148.25391c0.26562,0,0.52148,0.10596,0.70898,0.29443s0.29199,0.44434,0.29102,0.71045
		C171.45166,91.84424,137.74854,125.39062,96.51221,125.39062z M23.40088,51.60547
		c0.72266,39.6748,33.31152,71.78516,73.11133,71.78516c39.80273,0,72.39551-32.11035,73.11914-71.78516H23.40088z"/>
</g>
<g>
	<path d="M112.89502,116.62061c-17.80176,0-34.62305-6.8418-47.36621-19.26562
		c-12.7168-12.39746-19.99023-28.98975-20.48242-46.72119c-0.00781-0.27686,0.09766-0.54492,0.29102-0.74365
		c0.19238-0.19873,0.45801-0.31055,0.73438-0.31055h133.64355c0.27734,0,0.54199,0.11182,0.73535,0.31055
		s0.29785,0.4668,0.29004,0.74365c-0.49121,17.73047-7.7666,34.32324-20.4834,46.72119
		C147.51221,109.77881,130.69287,116.62061,112.89502,116.62061z M47.13525,51.63135
		c0.72949,16.79834,7.74512,32.47754,19.8252,44.25439c12.3584,12.04785,28.67188,18.68311,45.93457,18.68311
		c17.25977,0,33.57031-6.63525,45.92969-18.68311c12.08105-11.77783,19.09766-27.45703,19.82715-44.25439H47.13525z"/>
</g>
<g>
	<path d="M145.29736,96.6665c-25.83887,0-46.80762-20.21973-47.73828-46.03223c-0.00781-0.21777,0.07324-0.42969,0.22461-0.58643
		c0.15137-0.15723,0.36035-0.24561,0.57812-0.24561h93.86914c0.21777,0,0.42676,0.08838,0.57812,0.24561
		c0.15137,0.15674,0.23242,0.36865,0.22461,0.58643C192.10303,76.44678,171.13525,96.6665,145.29736,96.6665z M99.20166,51.40869
		c1.31543,24.54443,21.4043,43.65137,46.0957,43.65137c24.68945,0,44.77832-19.10693,46.09375-43.65137H99.20166z"/>
</g>
<g>
	<path d="M185.73096,81.03516c-17.20605,0-31.20312-13.99707-31.20312-31.20215c0-17.20264,13.99707-31.19824,31.20312-31.19824
		c17.20312,0,31.19922,13.99561,31.19922,31.19824C216.93018,67.03809,202.93408,81.03516,185.73096,81.03516z M185.73096,19.88477
		c-16.5166,0-29.95312,13.43457-29.95312,29.94824c0,16.51562,13.43652,29.95215,29.95312,29.95215
		c16.51367,0,29.94922-13.43652,29.94922-29.95215C215.68018,33.31934,202.24463,19.88477,185.73096,19.88477z"/>
</g>
<g>
	<path d="M201.30518,71.45898c-11.92383,0-21.62402-9.70117-21.62402-21.62598c0-11.92334,9.7002-21.62402,21.62402-21.62402
		c11.92578,0,21.62793,9.70068,21.62793,21.62402C222.93311,61.75781,213.23096,71.45898,201.30518,71.45898z M201.30518,29.10938
		c-11.42676,0-20.72363,9.29639-20.72363,20.72363c0,11.42822,9.29688,20.72559,20.72363,20.72559
		c11.42969,0,20.72754-9.29736,20.72754-20.72559C222.03271,38.40576,212.73486,29.10938,201.30518,29.10938z"/>
</g>
<g>
	<path d="M217.11182,60.16602c-5.91699,0-10.73047-4.81445-10.73047-10.73242c0-5.91748,4.81348-10.73145,10.73047-10.73145
		c5.91797,0,10.73242,4.81396,10.73242,10.73145C227.84424,55.35156,223.02979,60.16602,217.11182,60.16602z M217.11182,39.20215
		c-5.64062,0-10.23047,4.58984-10.23047,10.23145c0,5.64209,4.58984,10.23242,10.23047,10.23242
		c5.64258,0,10.23242-4.59033,10.23242-10.23242C227.34424,43.79199,222.75439,39.20215,217.11182,39.20215z"/>
</g>
<g>
	<path d="M22.16455,20.39844h-6.27539c-0.32812,0-0.42676-0.19678-0.42676-0.49268v-0.49268
		c0-0.2627,0.19727-0.42725,0.42676-0.42725h14.12695c0.2627,0,0.42676,0.19727,0.42676,0.42725v0.55859
		c0,0.22998-0.16406,0.42676-0.42676,0.42676H23.7085v21.15674c0,0.22998-0.19727,0.42725-0.52637,0.42725h-0.59082
		c-0.22949,0-0.42676-0.19727-0.42676-0.42725V20.39844z"/>
	<path d="M34.84717,19.41309c0-0.22998,0.16406-0.42725,0.42578-0.42725h8.14844c4.00781,0,7.32617,3.02246,7.32617,7.03027
		c0,3.31836-2.30078,5.979-5.4209,6.86621l4.7959,8.50879c0.16406,0.2627,0.09863,0.59131-0.22949,0.59131h-1.01855
		c-0.23047,0-0.36133-0.09863-0.45996-0.2959l-4.76367-8.60693c-0.42676,0.03271-0.78809,0.03271-1.21582,0.03271h-6.04492v8.44287
		c0,0.22998-0.19727,0.42725-0.52539,0.42725h-0.5918c-0.22949,0-0.42578-0.19727-0.42578-0.42725V19.41309z M43.35498,31.73242
		c3.1543,0,5.81445-2.46387,5.81445-5.71631c0-3.12061-2.66016-5.51904-5.84766-5.51904h-6.89844v11.23535H43.35498z"/>
	<path d="M54.23193,41.58838l10.11719-22.86523c0.06641-0.13135,0.23047-0.22998,0.39453-0.22998h0.09961
		c0.16406,0,0.32812,0.03271,0.42578,0.22998l10.02051,22.86523c0.06543,0.19678,0.06543,0.39404-0.2959,0.39404h-0.85352
		c-0.23047,0-0.39453-0.16406-0.46094-0.2959l-2.66016-6.04443h-12.5498l-2.62793,6.04443
		c-0.06641,0.13184-0.23047,0.2959-0.45996,0.2959h-0.91992C54.23193,41.98242,54.13232,41.85107,54.23193,41.58838z
		 M70.46045,34.36084l-5.61719-13.23975h-0.06641l-5.7168,13.23975H70.46045z"/>
	<path d="M77.67139,39.28857l0.42773-0.39404c0.16406-0.16455,0.32812-0.22998,0.55859,0
		c0.72266,0.72266,1.87207,2.03662,4.04004,2.03662c2.79297,0,4.79688-1.93848,4.79688-5.84766V19.41309
		c0-0.2627,0.19727-0.42725,0.45898-0.42725h0.6582c0.22949,0,0.42676,0.19727,0.42676,0.42725v15.6377
		c0,4.59912-2.46387,7.26025-6.37402,7.26025c-2.89062,0-4.46777-1.77393-5.02637-2.46387
		C77.50732,39.6499,77.50732,39.45264,77.67139,39.28857z"/>
	<path d="M93.47412,19.41309c0-0.22998,0.19727-0.42725,0.42676-0.42725h13.17383c0.22949,0,0.42676,0.19727,0.42676,0.42725
		v0.55859c0,0.22998-0.19727,0.42676-0.42676,0.42676H95.05127v9.06738h10.41309c0.23047,0,0.42773,0.19727,0.42773,0.42676v0.55859
		c0,0.22998-0.19727,0.42725-0.42773,0.42725H95.05127v9.72412h12.02344c0.22949,0,0.42676,0.19727,0.42676,0.42725v0.52539
		c0,0.22998-0.19727,0.42725-0.42676,0.42725H93.90088c-0.22949,0-0.42676-0.19727-0.42676-0.42725V19.41309z"/>
	<path d="M123.37158,18.65723c3.35059,0,5.84766,1.11719,7.98242,3.05518c0.16504,0.16455,0.19727,0.42725,0.0332,0.5918
		l-0.52539,0.55811c-0.19727,0.19727-0.36133,0.16455-0.55859-0.03271c-1.87305-1.67529-4.23828-2.69385-6.93164-2.69385
		c-5.74902,0-10.25,4.69775-10.25,10.38135c0,5.65039,4.50098,10.31543,10.25,10.31543c2.8252,0,4.96094-1.1167,6.93164-2.75928
		c0.19727-0.16455,0.39453-0.16455,0.52539-0.06592l0.55859,0.55859c0.16406,0.13135,0.16406,0.39404,0,0.55859
		c-2.2334,2.16797-5.0918,3.18652-8.01562,3.18652c-6.57031,0-11.89258-5.19092-11.89258-11.79395
		C111.479,23.94678,116.80127,18.65723,123.37158,18.65723z"/>
	<path d="M141.96729,20.39844h-6.27539c-0.32812,0-0.42676-0.19678-0.42676-0.49268v-0.49268
		c0-0.2627,0.19727-0.42725,0.42676-0.42725h14.12695c0.2627,0,0.42676,0.19727,0.42676,0.42725v0.55859
		c0,0.22998-0.16406,0.42676-0.42676,0.42676h-6.30762v21.15674c0,0.22998-0.19727,0.42725-0.52539,0.42725h-0.5918
		c-0.22949,0-0.42676-0.19727-0.42676-0.42725V20.39844z"/>
</g>
<g>
	<g>
		<g>
			<rect x="15.46436" y="49.49805" width="218.00098" height="1.41797"/>
			<path d="M233.46533,51.66602H15.46436c-0.41406,0-0.75-0.33594-0.75-0.75v-1.41797c0-0.41406,0.33594-0.75,0.75-0.75h218.00098
				c0.41406,0,0.75,0.33594,0.75,0.75v1.41797C234.21533,51.33008,233.87939,51.66602,233.46533,51.66602z"/>
		</g>
	</g>
</g>
</svg>
