<?xml version="1.0" encoding="utf-8"?>
<!-- Generator: Adobe Illustrator 16.0.0, SVG Export Plug-In . SVG Version: 6.00 Build 0)  -->
<!DOCTYPE svg PUBLIC "-//W3C//DTD SVG 1.1//EN" "http://www.w3.org/Graphics/SVG/1.1/DTD/svg11.dtd">
<svg version="1.1" id="Layer_1" xmlns="http://www.w3.org/2000/svg" xmlns:xlink="http://www.w3.org/1999/xlink" x="0px" y="0px"
	 width="219.501px" height="106.898px" viewBox="14.715 18.493 219.501 106.898"
	 enable-background="new 14.715 18.493 219.501 106.898" xml:space="preserve">
<g display="none">
	<path display="inline" fill="#FFFFFF" d="M96.513,125.391c-41.232,0-74.933-33.547-75.123-74.782
		c-0.002-0.266,0.104-0.521,0.291-0.709c0.188-0.189,0.443-0.295,0.709-0.295h148.254c0.266,0,0.521,0.105,0.709,0.295
		c0.188,0.188,0.292,0.443,0.291,0.71C171.452,91.844,137.749,125.391,96.513,125.391z M23.401,51.605
		c0.723,39.674,33.312,71.786,73.111,71.786c39.803,0,72.396-32.111,73.119-71.786H23.401z"/>
</g>
<g display="none">
	<path display="inline" fill="#FFFFFF" d="M112.896,116.62c-17.802,0-34.623-6.842-47.366-19.266
		c-12.717-12.396-19.99-28.989-20.482-46.72c-0.008-0.276,0.098-0.545,0.291-0.743c0.192-0.199,0.458-0.311,0.734-0.311h133.644
		c0.277,0,0.542,0.111,0.735,0.311c0.193,0.198,0.298,0.467,0.29,0.743c-0.491,17.73-7.767,34.324-20.483,46.72
		C147.513,109.778,130.693,116.62,112.896,116.62z M47.136,51.631c0.729,16.799,7.745,32.479,19.825,44.254
		c12.358,12.049,28.672,18.684,45.935,18.684c17.26,0,33.57-6.635,45.93-18.684c12.081-11.777,19.098-27.457,19.827-44.254H47.136z"
		/>
</g>
<g display="none">
	<path display="inline" fill="#FFFFFF" d="M145.298,96.667c-25.839,0-46.808-20.219-47.738-46.032
		c-0.008-0.219,0.073-0.43,0.225-0.587s0.36-0.245,0.578-0.245h93.869c0.218,0,0.427,0.088,0.578,0.245s0.232,0.368,0.225,0.587
		C192.104,76.448,171.136,96.667,145.298,96.667z M99.202,51.408c1.315,24.545,21.404,43.651,46.096,43.651
		c24.689,0,44.778-19.105,46.094-43.651H99.202z"/>
</g>
<g>
	<g>
		<g>
			<path fill="#FFFFFF" d="M185.731,18.635c-17.206,0-31.203,13.996-31.203,31.198c0,17.205,13.997,31.203,31.203,31.203
				c17.203,0,31.199-13.998,31.199-31.203C216.931,32.631,202.935,18.635,185.731,18.635z M185.731,79.786
				c-16.517,0-29.953-13.437-29.953-29.953c0-16.514,13.437-29.948,29.953-29.948c16.514,0,29.949,13.435,29.949,29.948
				C215.681,66.349,202.245,79.786,185.731,79.786z"/>
		</g>
	</g>
</g>
<g>
	<g>
		<g>
			<path fill="#FFFFFF" d="M201.306,28.209c-11.924,0-21.624,9.701-21.624,21.624c0,11.925,9.7,21.626,21.624,21.626
				c11.926,0,21.628-9.702,21.628-21.626C222.934,37.91,213.231,28.209,201.306,28.209z M201.306,70.559
				c-11.427,0-20.724-9.297-20.724-20.726c0-11.427,9.297-20.724,20.724-20.724c11.43,0,20.728,9.297,20.728,20.724
				C222.033,61.262,212.735,70.559,201.306,70.559z"/>
		</g>
	</g>
</g>
<g>
	<g>
		<g>
			<path fill="#FFFFFF" d="M217.112,38.702c-5.917,0-10.73,4.814-10.73,10.731c0,5.918,4.813,10.732,10.73,10.732
				c5.918,0,10.732-4.814,10.732-10.732C227.845,43.517,223.03,38.702,217.112,38.702z M217.112,59.666
				c-5.641,0-10.23-4.59-10.23-10.232c0-5.642,4.59-10.231,10.23-10.231c5.643,0,10.232,4.59,10.232,10.231
				C227.345,55.076,222.755,59.666,217.112,59.666z"/>
		</g>
	</g>
</g>
<g>
	<g>
		<g>
			<path fill="#FFFFFF" d="M30.017,18.985H15.89c-0.229,0-0.427,0.165-0.427,0.428v0.492c0,0.297,0.099,0.493,0.427,0.493h6.275
				v21.156c0,0.23,0.197,0.428,0.427,0.428h0.591c0.329,0,0.526-0.197,0.526-0.428V20.398h6.308c0.263,0,0.427-0.196,0.427-0.427
				v-0.559C30.443,19.183,30.279,18.985,30.017,18.985z"/>
			<path fill="#FFFFFF" d="M50.748,26.016c0-4.008-3.318-7.03-7.326-7.03h-8.148c-0.262,0-0.426,0.197-0.426,0.428v22.142
				c0,0.23,0.196,0.428,0.426,0.428h0.592c0.328,0,0.525-0.197,0.525-0.428v-8.442h6.045c0.428,0,0.789,0,1.216-0.032l4.764,8.606
				c0.099,0.197,0.229,0.296,0.46,0.296h1.019c0.328,0,0.394-0.328,0.229-0.592l-4.796-8.508
				C48.447,31.995,50.748,29.334,50.748,26.016z M43.355,31.732h-6.932V20.497h6.898c3.188,0,5.848,2.398,5.848,5.519
				C49.17,29.269,46.51,31.732,43.355,31.732z"/>
			<path fill="#FFFFFF" d="M65.27,18.724c-0.098-0.197-0.262-0.23-0.426-0.23h-0.1c-0.164,0-0.328,0.099-0.395,0.23L54.232,41.588
				c-0.1,0.264,0,0.395,0.229,0.395h0.92c0.229,0,0.394-0.164,0.46-0.296l2.628-6.045h12.55l2.66,6.045
				c0.066,0.132,0.23,0.296,0.461,0.296h0.854c0.361,0,0.361-0.197,0.296-0.395L65.27,18.724z M59.061,34.36l5.717-13.239h0.066
				l5.617,13.239H59.061z"/>
			<path fill="#FFFFFF" d="M88.612,18.985h-0.658c-0.262,0-0.459,0.165-0.459,0.428v15.67c0,3.909-2.004,5.849-4.797,5.849
				c-2.168,0-3.317-1.314-4.04-2.037c-0.23-0.23-0.395-0.164-0.559,0l-0.428,0.395c-0.164,0.164-0.164,0.361-0.033,0.559
				c0.559,0.689,2.136,2.463,5.026,2.463c3.91,0,6.374-2.66,6.374-7.26V19.413C89.039,19.183,88.842,18.985,88.612,18.985z"/>
			<path fill="#FFFFFF" d="M107.075,18.985H93.901c-0.229,0-0.427,0.197-0.427,0.428v22.142c0,0.23,0.197,0.428,0.427,0.428h13.174
				c0.229,0,0.427-0.197,0.427-0.428v-0.525c0-0.229-0.197-0.427-0.427-0.427H95.052v-9.724h10.413c0.23,0,0.428-0.197,0.428-0.428
				v-0.559c0-0.229-0.197-0.427-0.428-0.427H95.052v-9.067h12.023c0.229,0,0.427-0.196,0.427-0.427v-0.559
				C107.502,19.183,107.305,18.985,107.075,18.985z"/>
			<path fill="#FFFFFF" d="M130.829,38.008c-0.131-0.1-0.328-0.1-0.525,0.065c-1.971,1.643-4.106,2.759-6.932,2.759
				c-5.749,0-10.25-4.665-10.25-10.314c0-5.684,4.501-10.382,10.25-10.382c2.693,0,5.059,1.019,6.932,2.694
				c0.197,0.197,0.361,0.229,0.559,0.032l0.525-0.558c0.164-0.165,0.132-0.428-0.033-0.592c-2.135-1.938-4.632-3.056-7.982-3.056
				c-6.57,0-11.893,5.29-11.893,11.86c0,6.603,5.322,11.793,11.893,11.793c2.924,0,5.782-1.018,8.016-3.186
				c0.164-0.165,0.164-0.428,0-0.559L130.829,38.008z"/>
			<path fill="#FFFFFF" d="M149.819,18.985h-14.127c-0.229,0-0.427,0.165-0.427,0.428v0.492c0,0.297,0.099,0.493,0.427,0.493h6.275
				v21.156c0,0.23,0.197,0.428,0.427,0.428h0.592c0.328,0,0.525-0.197,0.525-0.428V20.398h6.308c0.263,0,0.427-0.196,0.427-0.427
				v-0.559C150.246,19.183,150.082,18.985,149.819,18.985z"/>
		</g>
	</g>
</g>
<g>
	<g>
		<path fill="#FFFFFF" d="M233.466,48.748H15.465c-0.414,0-0.75,0.336-0.75,0.75v1.418c0,0.414,0.336,0.75,0.75,0.75h218.001
			c0.414,0,0.75-0.336,0.75-0.75v-1.418C234.216,49.084,233.88,48.748,233.466,48.748z"/>
	</g>
</g>
</svg>
