<?xml version="1.0" encoding="utf-8"?>
<!-- Generator: Adobe Illustrator 16.0.4, SVG Export Plug-In . SVG Version: 6.00 Build 0)  -->
<!DOCTYPE svg PUBLIC "-//W3C//DTD SVG 1.1//EN" "http://www.w3.org/Graphics/SVG/1.1/DTD/svg11.dtd">
<svg version="1.1" id="Layer_1" xmlns="http://www.w3.org/2000/svg" xmlns:xlink="http://www.w3.org/1999/xlink" x="0px" y="0px"
	 width="240.94531px" height="136.06348px" viewBox="0 0 240.94531 136.06348" enable-background="new 0 0 240.94531 136.06348"
	 xml:space="preserve">
<g>
	<path fill="#FFFFFF" d="M96.5127,125.39062c-41.23242,0-74.93262-33.54688-75.12305-74.78125
		c-0.00195-0.26562,0.10352-0.52148,0.29102-0.70898c0.1875-0.18945,0.44336-0.29492,0.70898-0.29492h148.25391
		c0.26562,0,0.52148,0.10547,0.70898,0.29492c0.1875,0.1875,0.29199,0.44336,0.29102,0.70996
		C171.45215,91.84375,137.74902,125.39062,96.5127,125.39062z M23.40137,51.60547
		c0.72266,39.6748,33.31152,71.78516,73.11133,71.78516c39.80273,0,72.39551-32.11035,73.11914-71.78516H23.40137z"/>
</g>
<g>
	<path fill="#FFFFFF" d="M112.89551,116.62012c-17.80176,0-34.62305-6.8418-47.36621-19.26562
		c-12.7168-12.39746-19.99023-28.98926-20.48242-46.7207c-0.00781-0.27637,0.09766-0.54492,0.29102-0.74316
		c0.19238-0.19922,0.45801-0.31055,0.73438-0.31055h133.64355c0.27734,0,0.54199,0.11133,0.73535,0.31055
		c0.19336,0.19824,0.29785,0.4668,0.29004,0.74316c-0.49121,17.73047-7.7666,34.32324-20.4834,46.7207
		C147.5127,109.77832,130.69336,116.62012,112.89551,116.62012z M47.13574,51.63086
		c0.72949,16.79883,7.74512,32.47852,19.8252,44.25488c12.3584,12.04785,28.67188,18.68359,45.93457,18.68359
		c17.25977,0,33.57031-6.63574,45.92969-18.68359c12.08105-11.77832,19.09766-27.45703,19.82715-44.25488H47.13574z"/>
</g>
<g>
	<path fill="#FFFFFF" d="M145.29785,96.66699c-25.83887,0-46.80762-20.21973-47.73828-46.03223
		c-0.00781-0.21875,0.07324-0.42969,0.22461-0.58691s0.36035-0.24512,0.57812-0.24512h93.86914
		c0.21777,0,0.42676,0.08789,0.57812,0.24512s0.23242,0.36816,0.22461,0.58691
		C192.10352,76.44727,171.13574,96.66699,145.29785,96.66699z M99.20215,51.4082
		c1.31543,24.54492,21.4043,43.65137,46.0957,43.65137c24.68945,0,44.77832-19.10645,46.09375-43.65137H99.20215z"/>
</g>
<g>
	<path fill="#FFFFFF" d="M185.73145,81.03516c-17.20605,0-31.20312-13.99707-31.20312-31.20215
		c0-17.20215,13.99707-31.19824,31.20312-31.19824c17.20312,0,31.19922,13.99609,31.19922,31.19824
		C216.93066,67.03809,202.93457,81.03516,185.73145,81.03516z M185.73145,19.88477c-16.5166,0-29.95312,13.43457-29.95312,29.94824
		c0,16.51562,13.43652,29.95215,29.95312,29.95215c16.51367,0,29.94922-13.43652,29.94922-29.95215
		C215.68066,33.31934,202.24512,19.88477,185.73145,19.88477z"/>
</g>
<g>
	<path fill="#FFFFFF" d="M201.30566,71.45898c-11.92383,0-21.62402-9.70117-21.62402-21.62598
		c0-11.92285,9.7002-21.62402,21.62402-21.62402c11.92578,0,21.62793,9.70117,21.62793,21.62402
		C222.93359,61.75781,213.23145,71.45898,201.30566,71.45898z M201.30566,29.10938c-11.42676,0-20.72363,9.29688-20.72363,20.72363
		c0,11.42871,9.29688,20.72559,20.72363,20.72559c11.42969,0,20.72754-9.29688,20.72754-20.72559
		C222.0332,38.40625,212.73535,29.10938,201.30566,29.10938z"/>
</g>
<g>
	<path fill="#FFFFFF" d="M217.1123,60.16602c-5.91699,0-10.73047-4.81445-10.73047-10.73242
		c0-5.91699,4.81348-10.73145,10.73047-10.73145c5.91797,0,10.73242,4.81445,10.73242,10.73145
		C227.84473,55.35156,223.03027,60.16602,217.1123,60.16602z M217.1123,39.20215c-5.64062,0-10.23047,4.58984-10.23047,10.23145
		c0,5.64258,4.58984,10.23242,10.23047,10.23242c5.64258,0,10.23242-4.58984,10.23242-10.23242
		C227.34473,43.79199,222.75488,39.20215,217.1123,39.20215z"/>
</g>
<g>
	<path fill="#FFFFFF" d="M22.16504,20.39844h-6.27539c-0.32812,0-0.42676-0.19629-0.42676-0.49316v-0.49219
		c0-0.2627,0.19727-0.42773,0.42676-0.42773H30.0166c0.2627,0,0.42676,0.19727,0.42676,0.42773v0.55859
		c0,0.23047-0.16406,0.42676-0.42676,0.42676h-6.30762v21.15625c0,0.23047-0.19727,0.42773-0.52637,0.42773H22.5918
		c-0.22949,0-0.42676-0.19727-0.42676-0.42773V20.39844z"/>
	<path fill="#FFFFFF" d="M34.84766,19.41309c0-0.23047,0.16406-0.42773,0.42578-0.42773h8.14844
		c4.00781,0,7.32617,3.02246,7.32617,7.03027c0,3.31836-2.30078,5.97949-5.4209,6.86719l4.7959,8.50781
		c0.16406,0.26367,0.09863,0.5918-0.22949,0.5918H48.875c-0.23047,0-0.36133-0.09863-0.45996-0.2959l-4.76367-8.60645
		c-0.42676,0.03223-0.78809,0.03223-1.21582,0.03223h-6.04492v8.44238c0,0.23047-0.19727,0.42773-0.52539,0.42773h-0.5918
		c-0.22949,0-0.42578-0.19727-0.42578-0.42773V19.41309z M43.35547,31.73242c3.1543,0,5.81445-2.46387,5.81445-5.7168
		c0-3.12012-2.66016-5.51855-5.84766-5.51855h-6.89844v11.23535H43.35547z"/>
	<path fill="#FFFFFF" d="M54.23242,41.58789l10.11719-22.86426c0.06641-0.13184,0.23047-0.23047,0.39453-0.23047h0.09961
		c0.16406,0,0.32812,0.0332,0.42578,0.23047l10.02051,22.86426c0.06543,0.19727,0.06543,0.39453-0.2959,0.39453h-0.85352
		c-0.23047,0-0.39453-0.16406-0.46094-0.2959l-2.66016-6.04492h-12.5498l-2.62793,6.04492
		c-0.06641,0.13184-0.23047,0.2959-0.45996,0.2959h-0.91992C54.23242,41.98242,54.13281,41.85156,54.23242,41.58789z
		 M70.46094,34.36035l-5.61719-13.23926h-0.06641l-5.7168,13.23926H70.46094z"/>
	<path fill="#FFFFFF" d="M77.67188,39.28906l0.42773-0.39453c0.16406-0.16406,0.32812-0.23047,0.55859,0
		c0.72266,0.72266,1.87207,2.03711,4.04004,2.03711c2.79297,0,4.79688-1.93945,4.79688-5.84863V19.41309
		c0-0.2627,0.19727-0.42773,0.45898-0.42773h0.6582c0.22949,0,0.42676,0.19727,0.42676,0.42773v15.6377
		c0,4.59961-2.46387,7.25977-6.37402,7.25977c-2.89062,0-4.46777-1.77344-5.02637-2.46289
		C77.50781,39.65039,77.50781,39.45312,77.67188,39.28906z"/>
	<path fill="#FFFFFF" d="M93.47461,19.41309c0-0.23047,0.19727-0.42773,0.42676-0.42773h13.17383
		c0.22949,0,0.42676,0.19727,0.42676,0.42773v0.55859c0,0.23047-0.19727,0.42676-0.42676,0.42676H95.05176v9.06738h10.41309
		c0.23047,0,0.42773,0.19727,0.42773,0.42676v0.55859c0,0.23047-0.19727,0.42773-0.42773,0.42773H95.05176v9.72363h12.02344
		c0.22949,0,0.42676,0.19727,0.42676,0.42676v0.52539c0,0.23047-0.19727,0.42773-0.42676,0.42773H93.90137
		c-0.22949,0-0.42676-0.19727-0.42676-0.42773V19.41309z"/>
	<path fill="#FFFFFF" d="M123.37207,18.65723c3.35059,0,5.84766,1.11719,7.98242,3.05566
		c0.16504,0.16406,0.19727,0.42676,0.0332,0.5918l-0.52539,0.55762c-0.19727,0.19727-0.36133,0.16504-0.55859-0.03223
		c-1.87305-1.67578-4.23828-2.69434-6.93164-2.69434c-5.74902,0-10.25,4.69824-10.25,10.38184
		c0,5.64941,4.50098,10.31445,10.25,10.31445c2.8252,0,4.96094-1.11621,6.93164-2.75879
		c0.19727-0.16504,0.39453-0.16504,0.52539-0.06543l0.55859,0.55859c0.16406,0.13086,0.16406,0.39355,0,0.55859
		c-2.2334,2.16797-5.0918,3.18555-8.01562,3.18555c-6.57031,0-11.89258-5.19043-11.89258-11.79297
		C111.47949,23.94727,116.80176,18.65723,123.37207,18.65723z"/>
	<path fill="#FFFFFF" d="M141.96777,20.39844h-6.27539c-0.32812,0-0.42676-0.19629-0.42676-0.49316v-0.49219
		c0-0.2627,0.19727-0.42773,0.42676-0.42773h14.12695c0.2627,0,0.42676,0.19727,0.42676,0.42773v0.55859
		c0,0.23047-0.16406,0.42676-0.42676,0.42676h-6.30762v21.15625c0,0.23047-0.19727,0.42773-0.52539,0.42773h-0.5918
		c-0.22949,0-0.42676-0.19727-0.42676-0.42773V20.39844z"/>
</g>
<g>
	<g>
		<g>
			<rect x="15.46484" y="49.49805" fill="#FFFFFF" width="218.00098" height="1.41797"/>
			<path fill="#FFFFFF" d="M233.46582,51.66602H15.46484c-0.41406,0-0.75-0.33594-0.75-0.75v-1.41797
				c0-0.41406,0.33594-0.75,0.75-0.75h218.00098c0.41406,0,0.75,0.33594,0.75,0.75v1.41797
				C234.21582,51.33008,233.87988,51.66602,233.46582,51.66602z"/>
		</g>
	</g>
</g>
</svg>
